<svg xmlns="http://www.w3.org/2000/svg" viewBox="0 0 426.14 451.05"><defs><style>.cls-1{fill:#e8505b;}.cls-2{opacity:0.8;}.cls-3,.cls-4,.cls-7,.cls-8,.cls-9{fill:#fff;}.cls-4{opacity:0.6;}.cls-5,.cls-7{opacity:0.2;}.cls-10,.cls-6,.cls-8{opacity:0.3;}.cls-9{opacity:0.7;}</style></defs><g id="Layer_2" data-name="Layer 2"><g id="Virus"><path class="cls-1" d="M153.38,109.09c-1.81-18.43-19.26-33.93-37.77-33.57l-11.46,2c-17.49,6.07-28.5,26.65-23.82,44.56s24.32,30.5,42.55,27.25S155.19,127.51,153.38,109.09Z"/><g class="cls-2"><path class="cls-3" d="M153.38,109.09c-1.81-18.43-19.26-33.93-37.77-33.57l-11.46,2c-17.49,6.07-28.5,26.65-23.82,44.56s24.32,30.5,42.55,27.25S155.19,127.51,153.38,109.09Z"/></g><ellipse class="cls-1" cx="102.19" cy="124.18" rx="10.87" ry="11.24"/><ellipse class="cls-4" cx="102.19" cy="124.18" rx="10.87" ry="11.24"/><path class="cls-1" d="M380.2,36.49c-23.62-27.06-53-33-85.87-36.18S217.44,19,197.55,57C186,78.91,179,108.71,163.94,127.48c-21.46,26.79-45.38,33.51-79.47,36.37-45.72,3.83-69,29.64-80.68,80.86-12.5,55,5.79,118.07,56.93,162.85,36.64,32.08,82.15,46.84,127.7,42.85C262.21,444,397.69,404,423.54,197.35,433.43,118.3,414.24,75.5,380.2,36.49Z"/><g class="cls-2"><path class="cls-3" d="M380.2,36.49c-23.62-27.06-53-33-85.87-36.18S217.44,19,197.55,57C186,78.91,179,108.71,163.94,127.48c-21.46,26.79-45.38,33.51-79.47,36.37-45.72,3.83-69,29.64-80.68,80.86-12.5,55,5.79,118.07,56.93,162.85,36.64,32.08,82.15,46.84,127.7,42.85C262.21,444,397.69,404,423.54,197.35,433.43,118.3,414.24,75.5,380.2,36.49Z"/></g><ellipse class="cls-1" cx="298.15" cy="317.26" rx="18.44" ry="19.07"/><ellipse class="cls-4" cx="298.15" cy="317.26" rx="18.44" ry="19.07"/><ellipse class="cls-1" cx="230.28" cy="134.84" rx="18.44" ry="19.07"/><ellipse class="cls-4" cx="230.28" cy="134.84" rx="18.44" ry="19.07"/><ellipse class="cls-1" cx="384.28" cy="197.63" rx="9.22" ry="9.54"/><ellipse class="cls-4" cx="384.28" cy="197.63" rx="9.22" ry="9.54"/><ellipse class="cls-1" cx="50.36" cy="328.24" rx="18.44" ry="19.07"/><ellipse class="cls-4" cx="50.36" cy="328.24" rx="18.44" ry="19.07"/><path class="cls-1" d="M280.4,378.3a3.82,3.82,0,1,1-3.82-3.95A3.89,3.89,0,0,1,280.4,378.3Z"/><path class="cls-4" d="M280.4,378.3a3.82,3.82,0,1,1-3.82-3.95A3.89,3.89,0,0,1,280.4,378.3Z"/><path class="cls-1" d="M362.15,291.92a3.82,3.82,0,1,1-3.82-3.95A3.89,3.89,0,0,1,362.15,291.92Z"/><path class="cls-4" d="M362.15,291.92a3.82,3.82,0,1,1-3.82-3.95A3.89,3.89,0,0,1,362.15,291.92Z"/><path class="cls-1" d="M383.92,155.76a3.82,3.82,0,1,1-3.82-3.95A3.89,3.89,0,0,1,383.92,155.76Z"/><path class="cls-4" d="M383.92,155.76a3.82,3.82,0,1,1-3.82-3.95A3.89,3.89,0,0,1,383.92,155.76Z"/><path class="cls-1" d="M234.1,85.07a3.82,3.82,0,1,1-3.82-4A3.89,3.89,0,0,1,234.1,85.07Z"/><path class="cls-4" d="M234.1,85.07a3.82,3.82,0,1,1-3.82-4A3.89,3.89,0,0,1,234.1,85.07Z"/><ellipse class="cls-1" cx="120.99" cy="88.45" rx="3.82" ry="3.95"/><ellipse class="cls-4" cx="120.99" cy="88.45" rx="3.82" ry="3.95"/><circle class="cls-1" cx="378.87" cy="245.51" r="9.62"/><g class="cls-5"><path class="cls-3" d="M385.17,249.09c-.44-.23-.34-1.2-.47-2.52,0-.16,0-.34-.06-.51s-.05-.36-.08-.54a10.49,10.49,0,0,0-.28-1.14,7.92,7.92,0,0,0-1.12-2.28,8,8,0,0,0-1.82-1.77,8.94,8.94,0,0,0-1-.61l-.49-.25c-.16-.07-.31-.15-.47-.21-1.21-.53-2.16-.73-2.25-1.22a.46.46,0,0,1,.12-.37,1.46,1.46,0,0,1,.49-.38,4.45,4.45,0,0,1,2.05-.45,5.85,5.85,0,0,1,.71,0c.25,0,.5.07.76.11a8,8,0,0,1,1.62.55,7.67,7.67,0,0,1,1.63,1,8.06,8.06,0,0,1,1.46,1.51,8.29,8.29,0,0,1,1,1.85,7.78,7.78,0,0,1,.46,1.86,8.17,8.17,0,0,1,0,1.71,5.75,5.75,0,0,1-.12.76,6.11,6.11,0,0,1-.18.68,4.51,4.51,0,0,1-1.06,1.82,1.66,1.66,0,0,1-.51.35A.44.44,0,0,1,385.17,249.09Z"/></g><path class="cls-1" d="M373.45,232.78c.11.18-.24.59-.78.93a3.79,3.79,0,0,1-.53.27c-.32.12-.57.14-.65,0s.24-.59.79-.93S373.34,232.6,373.45,232.78Z"/><path class="cls-1" d="M373.41,237.7a17.28,17.28,0,0,0-1.23-3.77l1-.59s1.73,2.64,2.63,3.12A18.26,18.26,0,0,0,373.41,237.7Z"/><path class="cls-6" d="M372.19,234a3.78,3.78,0,0,0,1-.62l.4.58a4,4,0,0,1-1.24.26Z"/><path class="cls-1" d="M368.76,238.39c.19.09.1.63-.2,1.19a3.32,3.32,0,0,1-.32.5c-.22.27-.43.42-.55.35s-.09-.63.21-1.19S368.58,238.29,368.76,238.39Z"/><path class="cls-1" d="M370.3,241.61a9.5,9.5,0,0,0-2.05-1.58l.54-1a6.1,6.1,0,0,0,2.53.81A13.24,13.24,0,0,0,370.3,241.61Z"/><path class="cls-6" d="M368.27,240a2.53,2.53,0,0,0,.52-1,6,6,0,0,0,.62.31,3.76,3.76,0,0,1-.92.84Z"/><path class="cls-1" d="M365.33,243.93c.21,0,.39.51.41,1.14a2.87,2.87,0,0,1,0,.6c-.06.34-.17.57-.31.57s-.39-.51-.41-1.14S365.13,243.94,365.33,243.93Z"/><path class="cls-1" d="M369.56,246.44a16.79,16.79,0,0,0-3.87-.82l0-1.15s3.14-.16,4-.7A18.9,18.9,0,0,0,369.56,246.44Z"/><path class="cls-6" d="M365.72,245.62a3.67,3.67,0,0,0-.05-1.15l.69,0a3.73,3.73,0,0,1-.39,1.19Z"/><path class="cls-1" d="M367.68,250.72c.17-.11.59.24.93.78a4.44,4.44,0,0,1,.27.53c.12.32.14.58,0,.65s-.59-.24-.93-.78S367.5,250.83,367.68,250.72Z"/><path class="cls-1" d="M371.23,251a9.36,9.36,0,0,0-2.4,1l-.59-1a6.23,6.23,0,0,0,2-1.78A12.79,12.79,0,0,0,371.23,251Z"/><path class="cls-6" d="M368.86,252a2.6,2.6,0,0,0-.62-1l.58-.38a3.61,3.61,0,0,1,.25,1.22Z"/><path class="cls-1" d="M372.94,257.84c.05-.2.59-.23,1.21-.07a3.33,3.33,0,0,1,.56.19c.31.15.5.32.46.46s-.59.23-1.21.07S372.89,258,372.94,257.84Z"/><path class="cls-1" d="M376.52,254.47a17.11,17.11,0,0,0-1.87,3.5l-1.1-.3s.71-3.06.44-4.05A17.4,17.4,0,0,0,376.52,254.47Z"/><path class="cls-6" d="M374.66,257.94a3.62,3.62,0,0,0-1.11-.27c.05-.21.1-.44.15-.68a3.76,3.76,0,0,1,1,.71Z"/><path class="cls-1" d="M380.43,257.71c0-.2.44-.46,1.07-.57a3.13,3.13,0,0,1,.59-.05c.34,0,.59.09.61.22s-.44.46-1.07.57S380.46,257.91,380.43,257.71Z"/><path class="cls-1" d="M382,254.53a9.62,9.62,0,0,0,0,2.59l-1.12.18a6.24,6.24,0,0,0-.91-2.49A13.92,13.92,0,0,0,382,254.53Z"/><path class="cls-6" d="M382,257.09a2.59,2.59,0,0,0-1.12.21c0-.21-.08-.44-.14-.68a3.92,3.92,0,0,1,1.23.22Z"/><path class="cls-1" d="M388.55,255.14c-.16-.13,0-.64.44-1.13a2.77,2.77,0,0,1,.42-.42c.26-.22.5-.32.6-.24s0,.64-.44,1.13S388.71,255.27,388.55,255.14Z"/><path class="cls-1" d="M387,250.47a16.83,16.83,0,0,0,2.39,3.17l-.73.87s-2.49-1.93-3.5-2.1A17.65,17.65,0,0,0,387,250.47Z"/><path class="cls-6" d="M389.37,253.62a3.56,3.56,0,0,0-.71.89l-.56-.42a3.78,3.78,0,0,1,1.08-.64Z"/><path class="cls-6" d="M374.74,246.89c0,.74-.4,1.35-.91,1.35s-.9-.61-.9-1.35.4-1.35.9-1.35S374.74,246.14,374.74,246.89Z"/><path class="cls-1" d="M374.4,246.12c0,.75-.41,1.35-.91,1.35s-.9-.6-.9-1.35.4-1.35.9-1.35S374.4,245.38,374.4,246.12Z"/><path class="cls-7" d="M374.4,246.12c0,.75-.41,1.35-.91,1.35s-.9-.6-.9-1.35.4-1.35.9-1.35S374.4,245.38,374.4,246.12Z"/><path class="cls-6" d="M374.38,239.14c.65-.35,1.38-.28,1.61.17s-.11,1.08-.76,1.43-1.39.27-1.62-.17S373.72,239.48,374.38,239.14Z"/><path class="cls-1" d="M374,238.43c.65-.35,1.38-.28,1.61.17s-.11,1.08-.76,1.43-1.39.27-1.62-.17S373.32,238.78,374,238.43Z"/><path class="cls-7" d="M374,238.43c.65-.35,1.38-.28,1.61.17s-.11,1.08-.76,1.43-1.39.27-1.62-.17S373.32,238.78,374,238.43Z"/><path class="cls-6" d="M377.41,250.94a.89.89,0,1,1-.89-.89A.89.89,0,0,1,377.41,250.94Z"/><path class="cls-1" d="M377.41,250.47a.89.89,0,1,1-.89-.89A.88.88,0,0,1,377.41,250.47Z"/><path class="cls-8" d="M377.41,250.47a.89.89,0,1,1-.89-.89A.88.88,0,0,1,377.41,250.47Z"/><path class="cls-6" d="M383.31,243.05a1.1,1.1,0,0,1-1.55.06,1.09,1.09,0,1,1,1.55-.06Z"/><path class="cls-1" d="M383.7,242.62a1.09,1.09,0,1,1-.06-1.55A1.1,1.1,0,0,1,383.7,242.62Z"/><path class="cls-8" d="M383.7,242.62a1.09,1.09,0,1,1-.06-1.55A1.1,1.1,0,0,1,383.7,242.62Z"/><circle class="cls-6" cx="381.28" cy="251.82" r="0.65"/><circle class="cls-1" cx="381.28" cy="251.47" r="0.65"/><circle class="cls-8" cx="381.28" cy="251.47" r="0.65"/><path class="cls-1" d="M392.62,246.89c-.21,0-.39-.5-.41-1.13a3.45,3.45,0,0,1,0-.58c.05-.34.16-.56.3-.57s.38.5.4,1.13S392.82,246.88,392.62,246.89Z"/><path class="cls-1" d="M388.44,244.41a17,17,0,0,0,3.83.82l0,1.12s-3.11.16-4,.7A18.41,18.41,0,0,0,388.44,244.41Z"/><path class="cls-6" d="M392.24,245.23a3.48,3.48,0,0,0,.05,1.12l-.69.05a3.7,3.7,0,0,1,.39-1.18Z"/><path class="cls-1" d="M390.16,240.1c-.17.11-.58-.24-.92-.77a3.15,3.15,0,0,1-.26-.52c-.13-.32-.14-.57,0-.64s.58.23.92.77S390.33,240,390.16,240.1Z"/><path class="cls-1" d="M386.65,239.81a9.18,9.18,0,0,0,2.37-1l.58,1a6.11,6.11,0,0,0-1.94,1.76A13.74,13.74,0,0,0,386.65,239.81Z"/><path class="cls-6" d="M389,238.85a2.57,2.57,0,0,0,.61,1c-.18.11-.37.24-.56.38a3.72,3.72,0,0,1-.26-1.2Z"/><path class="cls-1" d="M387.13,234.41c-.09.18-.62.08-1.17-.22a2.77,2.77,0,0,1-.49-.32c-.26-.22-.4-.43-.34-.54s.63-.09,1.18.21S387.23,234.23,387.13,234.41Z"/><path class="cls-1" d="M382.89,236.78a16.93,16.93,0,0,0,2.63-2.9l1,.55s-1.43,2.76-1.4,3.78A17.9,17.9,0,0,0,382.89,236.78Z"/><path class="cls-6" d="M385.51,233.9a3.51,3.51,0,0,0,1,.53c-.1.19-.21.4-.31.62a3.79,3.79,0,0,1-.82-.94Z"/><path class="cls-1" d="M380.17,233c0,.2-.49.38-1.12.4a2.74,2.74,0,0,1-.59,0c-.33,0-.56-.16-.56-.3s.49-.39,1.12-.41S380.17,232.83,380.17,233Z"/><path class="cls-1" d="M378.16,235.93a9.59,9.59,0,0,0,.35-2.54l1.13,0a6.09,6.09,0,0,0,.54,2.56A12.7,12.7,0,0,0,378.16,235.93Z"/><path class="cls-6" d="M378.51,233.42a2.6,2.6,0,0,0,1.13,0,5.49,5.49,0,0,0,0,.68,3.66,3.66,0,0,1-1.17-.39Z"/><path class="cls-6" d="M384.31,249.52c-.35.66-1,1-1.43.77s-.52-1-.17-1.62,1-1,1.43-.77S384.66,248.86,384.31,249.52Z"/><path class="cls-1" d="M384.7,249.15c-.35.66-1,1-1.43.77s-.52-1-.17-1.62,1-1,1.43-.76S385.05,248.49,384.7,249.15Z"/><path class="cls-8" d="M384.7,249.15c-.35.66-1,1-1.43.77s-.52-1-.17-1.62,1-1,1.43-.76S385.05,248.49,384.7,249.15Z"/><path class="cls-6" d="M380.21,245.22a1.35,1.35,0,1,1-1.34-1.35A1.35,1.35,0,0,1,380.21,245.22Z"/><path class="cls-1" d="M380.21,244.43a1.35,1.35,0,1,1-1.34-1.34A1.34,1.34,0,0,1,380.21,244.43Z"/><path class="cls-7" d="M380.21,244.43a1.35,1.35,0,1,1-1.34-1.34A1.34,1.34,0,0,1,380.21,244.43Z"/><g class="cls-5"><path d="M383.71,252.6c.06.1-.07.31-.39.59a5.49,5.49,0,0,1-1.51.88,8,8,0,0,1-1.17.38,9.58,9.58,0,0,1-1.4.21,9,9,0,0,1-3.24-.35,9.29,9.29,0,0,1-2.89-1.5,8.89,8.89,0,0,1-1.05-.95,8.59,8.59,0,0,1-.76-1,5.52,5.52,0,0,1-.78-1.58c-.11-.4-.1-.65,0-.7s.74.59,1.7,1.49c.24.22.52.46.81.7s.63.47,1,.69a10.41,10.41,0,0,0,2.47,1.15,10.18,10.18,0,0,0,2.7.41,12,12,0,0,0,1.21,0c.37,0,.73-.08,1-.13C382.76,252.68,383.58,252.38,383.71,252.6Z"/></g><g class="cls-5"><path d="M370.4,245.22a.82.82,0,1,1,.08,1.64.82.82,0,1,1-.08-1.64Z"/></g><circle class="cls-1" cx="305.37" cy="370.44" r="5.24"/><g class="cls-5"><path class="cls-3" d="M308.8,372.4c-.24-.13-.19-.66-.26-1.38,0-.09,0-.18,0-.28s0-.19,0-.29a5.15,5.15,0,0,0-.16-.62,4.3,4.3,0,0,0-.6-1.24,4.53,4.53,0,0,0-1-1,5.35,5.35,0,0,0-.54-.34l-.27-.13-.25-.12c-.66-.28-1.18-.4-1.23-.66a.24.24,0,0,1,.07-.2.72.72,0,0,1,.26-.21,2.45,2.45,0,0,1,1.12-.24,2.61,2.61,0,0,1,.39,0l.41.06a3.67,3.67,0,0,1,.88.3,3.83,3.83,0,0,1,.89.55,4.11,4.11,0,0,1,.79.82,4.43,4.43,0,0,1,.54,1,4,4,0,0,1,.25,1,4.15,4.15,0,0,1,0,.93c0,.14,0,.28-.07.41a2,2,0,0,1-.1.37,2.48,2.48,0,0,1-.57,1,.93.93,0,0,1-.28.18A.23.23,0,0,1,308.8,372.4Z"/></g><path class="cls-1" d="M302.42,363.52c.06.09-.13.32-.43.5a1.91,1.91,0,0,1-.28.15c-.18.06-.32.07-.36,0s.13-.32.43-.51S302.36,363.42,302.42,363.52Z"/><path class="cls-1" d="M302.4,366.19a9.4,9.4,0,0,0-.68-2.05l.54-.32a7.45,7.45,0,0,0,1.43,1.7A9.09,9.09,0,0,0,302.4,366.19Z"/><path class="cls-6" d="M301.73,364.16a2.09,2.09,0,0,0,.53-.34c.06.1.13.21.21.32a2.07,2.07,0,0,1-.67.14Z"/><path class="cls-1" d="M299.87,366.57c.1.05.05.34-.11.65a2.11,2.11,0,0,1-.18.27c-.11.15-.23.23-.3.19s0-.34.12-.65S299.77,366.52,299.87,366.57Z"/><path class="cls-1" d="M300.7,368.32a5.18,5.18,0,0,0-1.11-.86l.29-.54a3.34,3.34,0,0,0,1.38.43A7.8,7.8,0,0,0,300.7,368.32Z"/><path class="cls-6" d="M299.6,367.47a1.39,1.39,0,0,0,.28-.55l.34.16a2.12,2.12,0,0,1-.5.46Z"/><path class="cls-1" d="M298,369.59c.11,0,.21.27.22.62a1.08,1.08,0,0,1,0,.32c0,.19-.09.31-.16.31s-.21-.27-.22-.62S297.89,369.59,298,369.59Z"/><path class="cls-1" d="M300.3,371a9.16,9.16,0,0,0-2.11-.45v-.62a7.88,7.88,0,0,0,2.19-.38A9.91,9.91,0,0,0,300.3,371Z"/><path class="cls-6" d="M298.21,370.5a2,2,0,0,0,0-.62l.38,0a2,2,0,0,1-.22.66Z"/><path class="cls-1" d="M299.28,373.28c.09-.06.32.13.5.43a2.6,2.6,0,0,1,.15.28c.07.18.08.32,0,.36s-.32-.13-.5-.43S299.18,373.34,299.28,373.28Z"/><path class="cls-1" d="M301.21,373.44a4.87,4.87,0,0,0-1.3.54l-.33-.53a3.46,3.46,0,0,0,1.07-1A6.86,6.86,0,0,0,301.21,373.44Z"/><path class="cls-6" d="M299.92,374a1.36,1.36,0,0,0-.34-.52l.32-.21a2,2,0,0,1,.14.66Z"/><path class="cls-1" d="M302.14,377.16c0-.11.32-.13.66,0a1.75,1.75,0,0,1,.3.1c.17.09.27.18.26.25s-.33.13-.66,0S302.11,377.27,302.14,377.16Z"/><path class="cls-1" d="M304.09,375.33a9.21,9.21,0,0,0-1,1.9l-.6-.16a7.74,7.74,0,0,0,.24-2.21A10.38,10.38,0,0,0,304.09,375.33Z"/><path class="cls-6" d="M303.08,377.21a2,2,0,0,0-.61-.14c0-.12.06-.25.08-.38a2.11,2.11,0,0,1,.57.39Z"/><path class="cls-1" d="M306.22,377.09c0-.11.24-.25.58-.31l.32,0c.19,0,.32.05.33.12s-.24.25-.58.31S306.24,377.2,306.22,377.09Z"/><path class="cls-1" d="M307.09,375.35a5,5,0,0,0,0,1.41l-.62.1a3.31,3.31,0,0,0-.49-1.35A6.93,6.93,0,0,0,307.09,375.35Z"/><path class="cls-6" d="M307.09,376.75a1.41,1.41,0,0,0-.61.11,2.53,2.53,0,0,0-.07-.36,2,2,0,0,1,.67.12Z"/><path class="cls-1" d="M310.64,375.69c-.09-.07,0-.35.24-.62a1.63,1.63,0,0,1,.22-.23c.15-.12.28-.17.33-.12s0,.34-.23.61S310.73,375.76,310.64,375.69Z"/><path class="cls-1" d="M309.8,373.15a9.07,9.07,0,0,0,1.3,1.72l-.4.48a7.82,7.82,0,0,0-1.91-1.15A10.76,10.76,0,0,0,309.8,373.15Z"/><path class="cls-6" d="M311.08,374.86a2,2,0,0,0-.38.49l-.31-.23a2.07,2.07,0,0,1,.59-.35Z"/><path class="cls-6" d="M303.12,371.2c0,.4-.22.73-.49.73s-.5-.33-.5-.73.22-.74.5-.74S303.12,370.79,303.12,371.2Z"/><path class="cls-1" d="M302.94,370.78c0,.41-.22.73-.5.73s-.49-.32-.49-.73.22-.73.49-.73S302.94,370.37,302.94,370.78Z"/><path class="cls-7" d="M302.94,370.78c0,.41-.22.73-.5.73s-.49-.32-.49-.73.22-.73.49-.73S302.94,370.37,302.94,370.78Z"/><path class="cls-6" d="M302.92,367c.36-.19.75-.15.88.09s-.06.59-.42.78-.75.15-.88-.09S302.56,367.17,302.92,367Z"/><path class="cls-1" d="M302.7,366.59c.36-.19.76-.15.89.09s-.06.59-.42.78-.75.15-.88-.09S302.35,366.78,302.7,366.59Z"/><path class="cls-7" d="M302.7,366.59c.36-.19.76-.15.89.09s-.06.59-.42.78-.75.15-.88-.09S302.35,366.78,302.7,366.59Z"/><path class="cls-6" d="M304.57,373.4a.48.48,0,1,1-.48-.48A.48.48,0,0,1,304.57,373.4Z"/><path class="cls-1" d="M304.57,373.14a.48.48,0,1,1-.48-.48A.48.48,0,0,1,304.57,373.14Z"/><path class="cls-8" d="M304.57,373.14a.48.48,0,1,1-.48-.48A.48.48,0,0,1,304.57,373.14Z"/><path class="cls-6" d="M307.78,369.11a.59.59,0,1,1-.87-.81.59.59,0,1,1,.87.81Z"/><path class="cls-1" d="M308,368.87a.6.6,0,0,1-.84,0A.6.6,0,0,1,308,368,.6.6,0,0,1,308,368.87Z"/><path class="cls-8" d="M308,368.87a.6.6,0,0,1-.84,0A.6.6,0,0,1,308,368,.6.6,0,0,1,308,368.87Z"/><path class="cls-6" d="M307,373.88a.36.36,0,1,1-.36-.36A.36.36,0,0,1,307,373.88Z"/><path class="cls-1" d="M307,373.69a.36.36,0,1,1-.36-.36A.36.36,0,0,1,307,373.69Z"/><path class="cls-8" d="M307,373.69a.36.36,0,1,1-.36-.36A.36.36,0,0,1,307,373.69Z"/><path class="cls-1" d="M312.85,371.2c-.11,0-.21-.28-.22-.62,0-.11,0-.22,0-.32s.09-.3.17-.3.21.27.22.61S313,371.19,312.85,371.2Z"/><path class="cls-1" d="M310.58,369.84a8.91,8.91,0,0,0,2.08.45v.62a7.56,7.56,0,0,0-2.16.37A9.67,9.67,0,0,0,310.58,369.84Z"/><path class="cls-6" d="M312.65,370.29a1.89,1.89,0,0,0,0,.62l-.37,0a2,2,0,0,1,.21-.64Z"/><path class="cls-1" d="M311.52,367.5c-.1.06-.32-.13-.5-.42a1.55,1.55,0,0,1-.15-.28c-.07-.18-.08-.31,0-.35s.31.13.5.42S311.61,367.44,311.52,367.5Z"/><path class="cls-1" d="M309.6,367.34a4.91,4.91,0,0,0,1.29-.53l.32.53a3.38,3.38,0,0,0-1.06,1A7,7,0,0,0,309.6,367.34Z"/><path class="cls-6" d="M310.88,366.82a1.42,1.42,0,0,0,.33.52l-.31.2a1.92,1.92,0,0,1-.14-.65Z"/><path class="cls-1" d="M309.87,364.4c-.05.1-.34.05-.64-.11a2.11,2.11,0,0,1-.27-.18c-.14-.12-.22-.23-.18-.3s.34,0,.64.12S309.92,364.31,309.87,364.4Z"/><path class="cls-1" d="M307.56,365.69a9.13,9.13,0,0,0,1.43-1.58l.54.3a7.49,7.49,0,0,0-.76,2.06A10.47,10.47,0,0,0,307.56,365.69Z"/><path class="cls-6" d="M309,364.13a2.06,2.06,0,0,0,.55.28l-.17.34a2,2,0,0,1-.45-.51Z"/><path class="cls-1" d="M306.08,363.65c0,.12-.27.22-.61.23l-.32,0c-.19,0-.31-.09-.31-.16s.27-.21.61-.23S306.07,363.54,306.08,363.65Z"/><path class="cls-1" d="M305,365.23a4.78,4.78,0,0,0,.19-1.38h.62a3.35,3.35,0,0,0,.29,1.39A7.54,7.54,0,0,0,305,365.23Z"/><path class="cls-6" d="M305.17,363.86a1.43,1.43,0,0,0,.62,0c0,.11,0,.24,0,.37a2.05,2.05,0,0,1-.64-.21Z"/><path class="cls-6" d="M308.33,372.63c-.19.36-.54.54-.78.42s-.28-.53-.09-.89.54-.54.78-.41S308.52,372.27,308.33,372.63Z"/><path class="cls-1" d="M308.54,372.43c-.19.36-.54.54-.78.42s-.28-.53-.09-.88.54-.55.78-.42S308.73,372.07,308.54,372.43Z"/><path class="cls-8" d="M308.54,372.43c-.19.36-.54.54-.78.42s-.28-.53-.09-.88.54-.55.78-.42S308.73,372.07,308.54,372.43Z"/><path class="cls-6" d="M306.1,370.29a.74.74,0,1,1-.73-.74A.73.73,0,0,1,306.1,370.29Z"/><path class="cls-1" d="M306.1,369.86a.74.74,0,1,1-.73-.73A.73.73,0,0,1,306.1,369.86Z"/><path class="cls-7" d="M306.1,369.86a.74.74,0,1,1-.73-.73A.73.73,0,0,1,306.1,369.86Z"/><g class="cls-5"><path d="M308,374.31c0,.05,0,.17-.21.32a3.21,3.21,0,0,1-.82.48,6.12,6.12,0,0,1-.64.2,5.5,5.5,0,0,1-.76.12,5,5,0,0,1-1.76-.2,4.91,4.91,0,0,1-1.58-.81,7.36,7.36,0,0,1-.57-.52,4.42,4.42,0,0,1-.41-.52,2.76,2.76,0,0,1-.42-.86c-.06-.22-.06-.35,0-.38s.4.32.93.81l.44.38c.16.12.34.26.53.38a5.4,5.4,0,0,0,1.35.62,5.6,5.6,0,0,0,1.47.23c.23,0,.45,0,.65,0l.58-.07C307.49,374.35,307.93,374.19,308,374.31Z"/></g><g class="cls-5"><path d="M300.76,370.29a.45.45,0,0,1,.49.42.47.47,0,1,1-.49-.42Z"/></g><path class="cls-1" d="M62,345.51a5.24,5.24,0,1,1-5.24-5.24A5.23,5.23,0,0,1,62,345.51Z"/><g class="cls-5"><path class="cls-3" d="M60.24,347.46c-.24-.13-.19-.66-.26-1.38,0-.08,0-.18,0-.27s0-.2-.05-.3a5.06,5.06,0,0,0-.15-.62,4.33,4.33,0,0,0-.61-1.24,4.28,4.28,0,0,0-1-1c-.18-.13-.37-.24-.54-.34l-.27-.13-.25-.11c-.66-.29-1.18-.4-1.23-.67a.26.26,0,0,1,.06-.2.87.87,0,0,1,.27-.21,2.56,2.56,0,0,1,1.12-.24,2.48,2.48,0,0,1,.38,0l.42.06a4.82,4.82,0,0,1,.88.3,4.05,4.05,0,0,1,.89.55,4.75,4.75,0,0,1,.79.82,4.29,4.29,0,0,1,.54,1,4.26,4.26,0,0,1,.26,1.94c0,.15,0,.29-.07.42s-.06.25-.1.37a2.43,2.43,0,0,1-.58,1,.84.84,0,0,1-.27.19A.25.25,0,0,1,60.24,347.46Z"/></g><path class="cls-1" d="M53.86,338.58c.06.09-.13.32-.43.5l-.29.15c-.17.07-.31.07-.35,0s.13-.32.43-.5S53.8,338.48,53.86,338.58Z"/><path class="cls-1" d="M53.83,341.26a9,9,0,0,0-.67-2.05l.53-.33a7.55,7.55,0,0,0,1.44,1.7A10,10,0,0,0,53.83,341.26Z"/><path class="cls-6" d="M53.17,339.22a1.83,1.83,0,0,0,.52-.34l.22.32a2.08,2.08,0,0,1-.68.14Z"/><path class="cls-1" d="M51.3,341.63c.1.05.05.34-.11.65a1.14,1.14,0,0,1-.17.27c-.12.15-.23.23-.3.19s0-.34.11-.65S51.2,341.58,51.3,341.63Z"/><path class="cls-1" d="M52.14,343.38a5.39,5.39,0,0,0-1.12-.86l.3-.54a3.46,3.46,0,0,0,1.37.44A7.8,7.8,0,0,0,52.14,343.38Z"/><path class="cls-6" d="M51,342.53a1.39,1.39,0,0,0,.28-.55l.33.16a1.93,1.93,0,0,1-.5.46Z"/><path class="cls-1" d="M49.44,344.65c.11,0,.21.27.22.62a1.57,1.57,0,0,1,0,.32c0,.19-.09.31-.17.31s-.21-.27-.22-.62S49.32,344.65,49.44,344.65Z"/><path class="cls-1" d="M51.74,346a9.16,9.16,0,0,0-2.11-.45v-.63a7.88,7.88,0,0,0,2.19-.38A10,10,0,0,0,51.74,346Z"/><path class="cls-6" d="M49.64,345.57a2,2,0,0,0,0-.63l.38,0a2.19,2.19,0,0,1-.22.65Z"/><path class="cls-1" d="M50.71,348.35c.1-.06.32.13.51.42a2.7,2.7,0,0,1,.15.29c.06.17.07.31,0,.35s-.32-.13-.51-.42S50.62,348.41,50.71,348.35Z"/><path class="cls-1" d="M52.65,348.5a5.45,5.45,0,0,0-1.31.54l-.32-.53a3.46,3.46,0,0,0,1.07-1A6.86,6.86,0,0,0,52.65,348.5Z"/><path class="cls-6" d="M51.36,349a1.36,1.36,0,0,0-.34-.52l.31-.21a2,2,0,0,1,.14.66Z"/><path class="cls-1" d="M53.58,352.22c0-.11.32-.13.65,0a1.85,1.85,0,0,1,.31.11c.17.08.27.17.25.24s-.32.13-.66,0S53.55,352.33,53.58,352.22Z"/><path class="cls-1" d="M55.53,350.39a9.21,9.21,0,0,0-1,1.9l-.6-.16a7.74,7.74,0,0,0,.24-2.21A9.88,9.88,0,0,0,55.53,350.39Z"/><path class="cls-6" d="M54.51,352.28a1.77,1.77,0,0,0-.6-.15c0-.12.05-.24.08-.37a2,2,0,0,1,.57.39Z"/><path class="cls-1" d="M57.65,352.15c0-.11.25-.25.59-.31l.32,0c.19,0,.32.05.33.12s-.24.25-.58.31S57.67,352.26,57.65,352.15Z"/><path class="cls-1" d="M58.53,350.42a5.19,5.19,0,0,0,0,1.41l-.61.1a3.38,3.38,0,0,0-.49-1.36A7.83,7.83,0,0,0,58.53,350.42Z"/><path class="cls-6" d="M58.53,351.81a1.31,1.31,0,0,0-.61.12c0-.12,0-.24-.07-.37a1.89,1.89,0,0,1,.66.12Z"/><path class="cls-1" d="M62.08,350.75c-.09-.07,0-.35.24-.62a2.44,2.44,0,0,1,.22-.23c.15-.12.27-.17.33-.12s0,.34-.24.61S62.16,350.82,62.08,350.75Z"/><path class="cls-1" d="M61.23,348.21a9.07,9.07,0,0,0,1.3,1.72l-.4.48a7.45,7.45,0,0,0-1.9-1.14A10.21,10.21,0,0,0,61.23,348.21Z"/><path class="cls-6" d="M62.52,349.92a1.91,1.91,0,0,0-.39.49l-.3-.23a2.07,2.07,0,0,1,.59-.35Z"/><ellipse class="cls-6" cx="54.06" cy="346.26" rx="0.49" ry="0.73"/><path class="cls-1" d="M54.37,345.84c0,.41-.22.74-.49.74s-.5-.33-.5-.74.23-.73.5-.73S54.37,345.44,54.37,345.84Z"/><path class="cls-7" d="M54.37,345.84c0,.41-.22.74-.49.74s-.5-.33-.5-.74.23-.73.5-.73S54.37,345.44,54.37,345.84Z"/><path class="cls-6" d="M54.36,342c.36-.19.75-.15.88.09s-.06.59-.42.78-.75.15-.88-.09S54,342.23,54.36,342Z"/><path class="cls-1" d="M54.14,341.65c.36-.19.75-.15.88.09s-.06.6-.42.78-.75.15-.88-.09S53.78,341.84,54.14,341.65Z"/><path class="cls-7" d="M54.14,341.65c.36-.19.75-.15.88.09s-.06.6-.42.78-.75.15-.88-.09S53.78,341.84,54.14,341.65Z"/><path class="cls-6" d="M56,348.46a.48.48,0,0,1-.48.49.49.49,0,1,1,0-1A.48.48,0,0,1,56,348.46Z"/><path class="cls-1" d="M56,348.21a.48.48,0,0,1-.48.48.49.49,0,1,1,0-1A.48.48,0,0,1,56,348.21Z"/><path class="cls-8" d="M56,348.21a.48.48,0,0,1-.48.48.49.49,0,1,1,0-1A.48.48,0,0,1,56,348.21Z"/><path class="cls-6" d="M59.22,344.17a.6.6,0,0,1-.84,0,.59.59,0,0,1,.81-.87A.6.6,0,0,1,59.22,344.17Z"/><path class="cls-1" d="M59.44,343.93a.59.59,0,1,1,0-.84A.6.6,0,0,1,59.44,343.93Z"/><path class="cls-8" d="M59.44,343.93a.59.59,0,1,1,0-.84A.6.6,0,0,1,59.44,343.93Z"/><circle class="cls-6" cx="58.12" cy="348.94" r="0.35"/><circle class="cls-1" cx="58.12" cy="348.75" r="0.35"/><circle class="cls-8" cx="58.12" cy="348.75" r="0.35"/><path class="cls-1" d="M64.29,346.26c-.11,0-.21-.27-.22-.62a1.51,1.51,0,0,1,0-.31c0-.19.09-.31.16-.31s.21.27.22.61S64.4,346.26,64.29,346.26Z"/><path class="cls-1" d="M62,344.91a9.2,9.2,0,0,0,2.09.44V346a7.3,7.3,0,0,0-2.16.38A8.8,8.8,0,0,0,62,344.91Z"/><path class="cls-6" d="M64.08,345.35a2,2,0,0,0,0,.62l-.37,0a2,2,0,0,1,.21-.64Z"/><path class="cls-1" d="M63,342.56c-.09.06-.32-.13-.5-.42a1.46,1.46,0,0,1-.14-.28c-.07-.17-.08-.31,0-.35s.32.13.5.42S63.05,342.5,63,342.56Z"/><path class="cls-1" d="M61,342.4a5.25,5.25,0,0,0,1.29-.52l.32.52a3.38,3.38,0,0,0-1.06,1A7,7,0,0,0,61,342.4Z"/><path class="cls-6" d="M62.32,341.88a1.28,1.28,0,0,0,.33.52l-.31.2a1.92,1.92,0,0,1-.14-.65Z"/><path class="cls-1" d="M61.3,339.47c0,.09-.34,0-.64-.12a2,2,0,0,1-.26-.18c-.14-.12-.22-.23-.19-.3s.34,0,.65.12S61.36,339.37,61.3,339.47Z"/><path class="cls-1" d="M59,340.75a9.26,9.26,0,0,0,1.44-1.57l.53.3a7.74,7.74,0,0,0-.76,2A9.63,9.63,0,0,0,59,340.75Z"/><path class="cls-6" d="M60.42,339.19a2.14,2.14,0,0,0,.54.29c-.05.1-.11.21-.16.33a1.86,1.86,0,0,1-.45-.51Z"/><path class="cls-1" d="M57.52,338.72c0,.11-.28.21-.62.22a1.67,1.67,0,0,1-.32,0c-.18,0-.3-.09-.3-.16s.27-.21.61-.22S57.51,338.61,57.52,338.72Z"/><path class="cls-1" d="M56.42,340.29a5.22,5.22,0,0,0,.19-1.38h.61a3.23,3.23,0,0,0,.3,1.39A7.54,7.54,0,0,0,56.42,340.29Z"/><path class="cls-6" d="M56.61,338.93a1.46,1.46,0,0,0,.61,0c0,.11,0,.24,0,.37a1.94,1.94,0,0,1-.63-.21Z"/><path class="cls-6" d="M59.77,347.69c-.19.36-.54.54-.78.42s-.29-.52-.1-.88.54-.55.78-.42S60,347.33,59.77,347.69Z"/><path class="cls-1" d="M60,347.49c-.19.36-.54.55-.78.42s-.28-.52-.09-.88.53-.55.78-.42S60.17,347.13,60,347.49Z"/><path class="cls-8" d="M60,347.49c-.19.36-.54.55-.78.42s-.28-.52-.09-.88.53-.55.78-.42S60.17,347.13,60,347.49Z"/><path class="cls-6" d="M57.54,345.35a.74.74,0,1,1-.74-.74A.74.74,0,0,1,57.54,345.35Z"/><circle class="cls-1" cx="56.8" cy="344.92" r="0.73"/><circle class="cls-7" cx="56.8" cy="344.92" r="0.73"/><g class="cls-5"><path d="M59.44,349.37c0,.05,0,.17-.21.32a3.13,3.13,0,0,1-.83.48,4.26,4.26,0,0,1-.63.2,4.47,4.47,0,0,1-.76.12,5,5,0,0,1-1.76-.19,5.13,5.13,0,0,1-1.58-.82,4.1,4.1,0,0,1-.57-.52,6,6,0,0,1-.42-.52,3.3,3.3,0,0,1-.42-.86c-.06-.22,0-.35,0-.38s.41.32.93.81l.44.38a5.71,5.71,0,0,0,.54.38,5.4,5.4,0,0,0,1.35.62,5.53,5.53,0,0,0,1.46.23c.23,0,.45,0,.66,0l.58-.07C58.92,349.41,59.37,349.25,59.44,349.37Z"/></g><g class="cls-5"><path d="M52.19,345.35a.45.45,0,1,1-.45.47A.46.46,0,0,1,52.19,345.35Z"/></g><circle class="cls-1" cx="331.94" cy="178.27" r="14.56"/><circle class="cls-9" cx="331.94" cy="178.27" r="14.56"/><circle class="cls-1" cx="98.63" cy="195.59" r="8.03" transform="translate(-114.35 246.82) rotate(-76.76)"/><circle class="cls-9" cx="98.63" cy="195.59" r="8.03" transform="translate(-114.35 246.82) rotate(-76.76)"/><circle class="cls-1" cx="133.55" cy="128.03" r="8.03" transform="translate(-38.97 61.2) rotate(-22.62)"/><circle class="cls-9" cx="133.55" cy="128.03" r="8.03" transform="translate(-38.97 61.2) rotate(-22.62)"/><circle class="cls-1" cx="280.44" cy="77.04" r="8.03" transform="translate(-8.06 113.77) rotate(-22.62)"/><circle class="cls-9" cx="280.44" cy="77.04" r="8.03" transform="translate(-8.06 113.77) rotate(-22.62)"/><path class="cls-1" d="M113.23,297.52a5.32,5.32,0,1,1-5.31-5.6A5.46,5.46,0,0,1,113.23,297.52Z"/><path class="cls-9" d="M113.23,297.52a5.32,5.32,0,1,1-5.31-5.6A5.46,5.46,0,0,1,113.23,297.52Z"/><ellipse class="cls-1" cx="231.24" cy="370.92" rx="10.65" ry="10.04"/><ellipse class="cls-4" cx="231.24" cy="370.92" rx="10.65" ry="10.04"/><path class="cls-1" d="M114.89,118.6a9.59,9.59,0,0,0,1.31-3.52,14.35,14.35,0,0,1,3.93-.68l0-1.12a17.22,17.22,0,0,1-3.84-.81,9.71,9.71,0,0,0-.79-2.85,6.55,6.55,0,0,1,2-1.77l-.59-1a9.26,9.26,0,0,1-2.4,1,9.64,9.64,0,0,0-1.51-1.62c0-1,1.4-3.76,1.4-3.76l-1-.55a16.31,16.31,0,0,1-2.63,2.89A9.59,9.59,0,0,0,108,104a7,7,0,0,1-.53-2.61l-1.13,0A9.09,9.09,0,0,1,106,104a9.29,9.29,0,0,0-2.43.5,14.61,14.61,0,0,1-2.57-3.08l-1,.59a16.09,16.09,0,0,1,1.21,3.67A9.57,9.57,0,0,0,99,107.87a6.86,6.86,0,0,1-2.33-.8l-.54,1A9.25,9.25,0,0,1,98,109.5a9.26,9.26,0,0,0-.76,2.46,17.39,17.39,0,0,1-3.72.56l0,1.15a14.64,14.64,0,0,1,3.6.74,9.34,9.34,0,0,0,.8,3.07,6.85,6.85,0,0,1-1.85,1.59l.6,1a8.94,8.94,0,0,1,2.19-.93,9.6,9.6,0,0,0,3,2.74,16.05,16.05,0,0,1-.48,3.86l1.11.3a14.65,14.65,0,0,1,1.66-3.19,9.81,9.81,0,0,0,2.55.35,9.36,9.36,0,0,0,1.3-.1,7.07,7.07,0,0,1,.75,2.27l1.13-.18a9.93,9.93,0,0,1,0-2.54,9.47,9.47,0,0,0,3.43-2.08,17.41,17.41,0,0,1,3.2,2l.73-.87A16.39,16.39,0,0,1,114.89,118.6ZM106.3,104h0Z"/><g class="cls-5"><path class="cls-3" d="M113,117.14c-.44-.23-.34-1.21-.47-2.52,0-.16,0-.34-.05-.51s-.06-.36-.09-.54a8.59,8.59,0,0,0-.28-1.14,7.64,7.64,0,0,0-1.11-2.28,8.05,8.05,0,0,0-1.83-1.77,8.94,8.94,0,0,0-1-.61l-.48-.25-.47-.21c-1.21-.53-2.17-.73-2.26-1.22a.46.46,0,0,1,.12-.37,1.57,1.57,0,0,1,.49-.38,4.46,4.46,0,0,1,2.06-.45,5.69,5.69,0,0,1,.7,0c.25,0,.5.07.76.11a8,8,0,0,1,1.63.55,7.93,7.93,0,0,1,1.63,1A7.68,7.68,0,0,1,114.8,110a7.78,7.78,0,0,1,.46,1.86,8.2,8.2,0,0,1,0,1.71c0,.27-.07.52-.12.76a6.08,6.08,0,0,1-.19.68,4.51,4.51,0,0,1-1.06,1.82,1.46,1.46,0,0,1-.51.35A.44.44,0,0,1,113,117.14Z"/></g><path class="cls-1" d="M101.3,100.83c.11.18-.24.59-.79.93a3.15,3.15,0,0,1-.52.26c-.32.13-.58.15-.65,0s.24-.59.78-.93S101.19,100.65,101.3,100.83Z"/><path class="cls-6" d="M100,102a4,4,0,0,0,1-.62c.11.18.25.38.39.58a4,4,0,0,1-1.24.26Z"/><path class="cls-1" d="M96.61,106.44c.18.09.09.63-.21,1.19a3.32,3.32,0,0,1-.32.5c-.21.27-.42.42-.54.35s-.1-.63.2-1.19S96.42,106.34,96.61,106.44Z"/><path class="cls-6" d="M96.11,108.09a2.53,2.53,0,0,0,.52-1c.19.11.4.21.62.31a3.76,3.76,0,0,1-.92.84Z"/><path class="cls-1" d="M93.18,112c.2,0,.39.51.41,1.14a3.7,3.7,0,0,1,0,.6c0,.34-.17.56-.3.57s-.39-.51-.41-1.14S93,112,93.18,112Z"/><path class="cls-6" d="M93.56,113.67a3.67,3.67,0,0,0,0-1.15c.21,0,.45,0,.7,0a3.86,3.86,0,0,1-.4,1.2Z"/><path class="cls-1" d="M95.52,118.77c.17-.11.59.24.93.78a2.41,2.41,0,0,1,.27.53c.12.32.14.57,0,.65s-.59-.24-.93-.78S95.34,118.88,95.52,118.77Z"/><path class="cls-6" d="M96.7,120a2.46,2.46,0,0,0-.62-1c.19-.11.38-.24.58-.38a3.81,3.81,0,0,1,.26,1.22Z"/><path class="cls-1" d="M100.78,125.89c0-.2.59-.23,1.21-.07a3.33,3.33,0,0,1,.56.19c.31.15.5.32.47.46s-.6.23-1.22.07S100.73,126.09,100.78,125.89Z"/><path class="cls-6" d="M102.5,126a3.62,3.62,0,0,0-1.11-.27c0-.21.1-.44.15-.68a3.76,3.76,0,0,1,1,.71Z"/><path class="cls-1" d="M108.27,125.76c0-.2.44-.46,1.07-.57a3.2,3.2,0,0,1,.59,0c.35,0,.59.09.61.22s-.44.46-1.07.57S108.31,126,108.27,125.76Z"/><path class="cls-6" d="M109.88,125.14a2.44,2.44,0,0,0-1.12.21c0-.21-.08-.44-.13-.68a3.87,3.87,0,0,1,1.22.22Z"/><path class="cls-1" d="M116.4,123.19c-.16-.13,0-.64.44-1.13a2.74,2.74,0,0,1,.41-.42c.26-.22.5-.32.61-.24s0,.64-.44,1.13S116.56,123.32,116.4,123.19Z"/><path class="cls-6" d="M117.21,121.67a3.59,3.59,0,0,0-.71.89l-.56-.42a3.72,3.72,0,0,1,1.09-.64Z"/><path class="cls-6" d="M102.59,114.94c0,.74-.41,1.35-.91,1.35s-.91-.61-.91-1.35.41-1.35.91-1.35S102.59,114.19,102.59,114.94Z"/><path class="cls-1" d="M102.24,114.17c0,.75-.4,1.35-.9,1.35s-.91-.6-.91-1.35.41-1.35.91-1.35S102.24,113.43,102.24,114.17Z"/><path class="cls-7" d="M102.24,114.17c0,.75-.4,1.35-.9,1.35s-.91-.6-.91-1.35.41-1.35.91-1.35S102.24,113.43,102.24,114.17Z"/><path class="cls-6" d="M102.22,107.19c.66-.35,1.38-.28,1.62.17s-.11,1.08-.77,1.43-1.38.27-1.62-.17S101.56,107.53,102.22,107.19Z"/><path class="cls-1" d="M101.82,106.48c.66-.35,1.38-.28,1.62.17s-.11,1.08-.77,1.43-1.38.27-1.62-.17S101.16,106.83,101.82,106.48Z"/><path class="cls-7" d="M101.82,106.48c.66-.35,1.38-.28,1.62.17s-.11,1.08-.77,1.43-1.38.27-1.62-.17S101.16,106.83,101.82,106.48Z"/><path class="cls-6" d="M105.25,119a.89.89,0,1,1-.88-.89A.88.88,0,0,1,105.25,119Z"/><path class="cls-1" d="M105.25,118.52a.89.89,0,0,1-1.77,0,.89.89,0,1,1,1.77,0Z"/><path class="cls-8" d="M105.25,118.52a.89.89,0,0,1-1.77,0,.89.89,0,1,1,1.77,0Z"/><path class="cls-6" d="M111.15,111.1a1.09,1.09,0,0,1-1.61-1.48,1.09,1.09,0,1,1,1.61,1.48Z"/><path class="cls-1" d="M111.55,110.67a1.1,1.1,0,0,1-1.55.06,1.09,1.09,0,1,1,1.55-.06Z"/><path class="cls-8" d="M111.55,110.67a1.1,1.1,0,0,1-1.55.06,1.09,1.09,0,1,1,1.55-.06Z"/><circle class="cls-6" cx="109.13" cy="119.87" r="0.65"/><circle class="cls-1" cx="109.13" cy="119.52" r="0.65"/><circle class="cls-8" cx="109.13" cy="119.52" r="0.65"/><path class="cls-1" d="M120.46,114.94c-.2,0-.38-.5-.4-1.13a2.68,2.68,0,0,1,0-.58c.06-.34.17-.57.3-.57s.39.5.41,1.13S120.66,114.93,120.46,114.94Z"/><path class="cls-6" d="M120.08,113.28a3.48,3.48,0,0,0,0,1.12l-.69,0a3.54,3.54,0,0,1,.4-1.18Z"/><path class="cls-1" d="M118,108.15c-.18.11-.59-.24-.92-.77a2.6,2.6,0,0,1-.27-.52c-.12-.32-.14-.57,0-.64s.59.23.92.77S118.18,108,118,108.15Z"/><path class="cls-6" d="M116.84,106.9a2.43,2.43,0,0,0,.61.95c-.18.11-.37.24-.57.38a3.53,3.53,0,0,1-.25-1.2Z"/><path class="cls-1" d="M115,102.46c-.1.18-.63.08-1.18-.22a3.2,3.2,0,0,1-.49-.32c-.26-.22-.4-.43-.33-.54s.62-.09,1.17.21S115.08,102.28,115,102.46Z"/><path class="cls-6" d="M113.35,102a3.51,3.51,0,0,0,1,.53c-.09.19-.2.4-.3.62a3.77,3.77,0,0,1-.83-.94Z"/><path class="cls-1" d="M108,101.09c0,.2-.5.38-1.13.4a2.68,2.68,0,0,1-.58,0c-.34,0-.57-.16-.57-.3s.5-.39,1.13-.41S108,100.88,108,101.09Z"/><path class="cls-6" d="M106.35,101.47a2.6,2.6,0,0,0,1.13,0c0,.21,0,.44,0,.68a3.74,3.74,0,0,1-1.17-.39Z"/><path class="cls-6" d="M112.15,117.57c-.34.66-1,1-1.43.77s-.52-1-.17-1.62,1-1,1.43-.77S112.5,116.91,112.15,117.57Z"/><path class="cls-1" d="M112.54,117.2c-.35.66-1,1-1.43.77s-.52-1-.17-1.62,1-1,1.43-.76S112.89,116.54,112.54,117.2Z"/><path class="cls-8" d="M112.54,117.2c-.35.66-1,1-1.43.77s-.52-1-.17-1.62,1-1,1.43-.76S112.89,116.54,112.54,117.2Z"/><path class="cls-6" d="M108.06,113.27a1.35,1.35,0,1,1-1.35-1.35A1.36,1.36,0,0,1,108.06,113.27Z"/><path class="cls-1" d="M108.06,112.48a1.35,1.35,0,1,1-1.35-1.34A1.35,1.35,0,0,1,108.06,112.48Z"/><path class="cls-7" d="M108.06,112.48a1.35,1.35,0,1,1-1.35-1.34A1.35,1.35,0,0,1,108.06,112.48Z"/><g class="cls-5"><path d="M111.55,120.65c.06.1-.07.31-.38.59a5.74,5.74,0,0,1-1.52.88,8,8,0,0,1-1.17.38,9.65,9.65,0,0,1-1.39.21,9,9,0,0,1-3.24-.35,9.35,9.35,0,0,1-2.9-1.5,8.84,8.84,0,0,1-1-1,8.74,8.74,0,0,1-.77-1,5.45,5.45,0,0,1-.77-1.58c-.11-.4-.1-.65,0-.7s.75.59,1.71,1.49c.24.22.51.46.81.7a11.21,11.21,0,0,0,1,.69,10.49,10.49,0,0,0,2.48,1.15,10.05,10.05,0,0,0,2.69.41,11.92,11.92,0,0,0,1.21,0c.38,0,.73-.08,1.06-.14C110.61,120.73,111.42,120.43,111.55,120.65Z"/></g><g class="cls-5"><path d="M98.24,113.27a.82.82,0,1,1,.08,1.64.82.82,0,1,1-.08-1.64Z"/></g><path class="cls-1" d="M78.26,268.86a24.19,24.19,0,0,0,6.15-7.26c2.61-.46,10,1.78,10,1.78l.93-2.71c-2.89-1-7.78-4.71-8.47-5.24a24.3,24.3,0,0,0,.6-7.47c1.92-1.71,6.21-2.51,6.21-2.51l-.57-2.81a23.6,23.6,0,0,1-6.58.25,24.15,24.15,0,0,0-2.18-5.16c.85-2.46,6.58-7.77,6.58-7.77L89,227.79c-2.49,2.15-8.73,4.62-8.77,4.63a24.36,24.36,0,0,0-5.8-4.23c-.45-2.53,1-6.69,1-6.69l-2.71-.92a23.44,23.44,0,0,1-3,5.72,24.52,24.52,0,0,0-6.24-.91c-1.72-2.12-3.47-9.55-3.47-9.55l-2.84.56c.57,2.91-.11,8.54-.28,9.79a24.62,24.62,0,0,0-7.34,3.34,17.12,17.12,0,0,1-4.85-3.91l-2.16,1.93a23.77,23.77,0,0,1,3.3,5,24.39,24.39,0,0,0-3.94,5.2c-3.06.05-9.35-1.86-9.35-1.86l-.94,2.74c2.53.88,6.47,3.75,7.94,4.87a24.4,24.4,0,0,0-.75,8,17.25,17.25,0,0,1-5.77,2.2l.58,2.84a23.35,23.35,0,0,1,6-.32,24.34,24.34,0,0,0,4.78,9.13c-.61,2.86-4.46,8.79-4.46,8.79l2.37,1.66c1.51-2.13,5.18-5,6.74-6.17a24.33,24.33,0,0,0,5.76,3,24.87,24.87,0,0,0,3.19.89,17.62,17.62,0,0,1-.18,6.05l2.85.54a23.6,23.6,0,0,1,2.16-6.05,24.4,24.4,0,0,0,10-2c2.35,1.95,5.88,7.56,5.88,7.56l2.5-1.46C79.66,275.62,78.47,269.94,78.26,268.86Zm-7.84-42.33-.09,0Z"/><g class="cls-5"><path class="cls-3" d="M75,263.77c-.84-.94.23-3.18,1.06-6.42.13-.4.19-.84.31-1.27s.17-.9.26-1.36a24.66,24.66,0,0,0,.32-2.95,20.31,20.31,0,0,0-.69-6.41,20.53,20.53,0,0,0-2.83-5.79,28.29,28.29,0,0,0-1.85-2.33c-.33-.34-.63-.69-1-1s-.62-.64-.93-.91c-2.44-2.3-4.54-3.62-4.33-4.87a1.18,1.18,0,0,1,.61-.77,3.89,3.89,0,0,1,1.5-.48,11.4,11.4,0,0,1,5.28.71,15.05,15.05,0,0,1,1.66.69c.56.26,1.12.59,1.71.93a20.57,20.57,0,0,1,3.39,2.7,20.11,20.11,0,0,1,3,3.82,20.4,20.4,0,0,1,2.16,4.86,20.85,20.85,0,0,1,.77,5.26A19.8,19.8,0,0,1,85,253a19.46,19.46,0,0,1-1.43,4.09c-.31.61-.61,1.18-1,1.71a15.6,15.6,0,0,1-1,1.46,11.45,11.45,0,0,1-4.09,3.43,3.78,3.78,0,0,1-1.52.39A1.23,1.23,0,0,1,75,263.77Z"/></g><path class="cls-1" d="M61.18,214.76c.11.51-1.09,1.2-2.67,1.53a7.6,7.6,0,0,1-1.49.19c-.87,0-1.49-.17-1.57-.51-.11-.51,1.09-1.2,2.67-1.53S61.07,214.24,61.18,214.76Z"/><path class="cls-6" d="M57.15,216.47a9.46,9.46,0,0,0,2.83-.63c.13.52.27,1.11.44,1.71a9.64,9.64,0,0,1-3.18-.45Z"/><path class="cls-1" d="M45.16,224.08c.35.39-.33,1.59-1.52,2.68a9.75,9.75,0,0,1-1.2.91c-.74.45-1.37.62-1.6.36s.32-1.59,1.52-2.68S44.8,223.69,45.16,224.08Z"/><path class="cls-6" d="M42.55,227.6a6.39,6.39,0,0,0,2.12-2c.35.41.76.83,1.2,1.27A9.34,9.34,0,0,1,43,228.08Z"/><path class="cls-1" d="M32.19,234.34c.5.16.49,1.54,0,3.08a8.54,8.54,0,0,1-.59,1.38c-.43.76-.9,1.21-1.23,1.1-.49-.16-.49-1.54,0-3.08S31.69,234.18,32.19,234.34Z"/><path class="cls-6" d="M31.65,238.68a9.21,9.21,0,0,0,.87-2.76l1.7.48a9.46,9.46,0,0,1-2,2.52Z"/><path class="cls-1" d="M31.91,252.55c.52-.11,1.21,1.08,1.55,2.66a7.79,7.79,0,0,1,.19,1.49c0,.87-.16,1.5-.5,1.57-.51.11-1.2-1.08-1.54-2.65S31.4,252.67,31.91,252.55Z"/><path class="cls-6" d="M33.65,256.58a6.43,6.43,0,0,0-.65-2.83c.53-.1,1.1-.24,1.7-.4a9.44,9.44,0,0,1-.43,3.12Z"/><path class="cls-1" d="M38.31,274.07c.3-.43,1.62-.05,2.95.86a7.31,7.31,0,0,1,1.16,1c.62.61.92,1.19.73,1.48s-1.62,0-3-.87S38,274.5,38.31,274.07Z"/><path class="cls-6" d="M42.33,275.8a9.27,9.27,0,0,0-2.41-1.61c.29-.45.62-1,.94-1.5a9.58,9.58,0,0,1,1.86,2.6Z"/><path class="cls-1" d="M56.29,280.22c.09-.52,1.45-.71,3-.43a7.41,7.41,0,0,1,1.45.39c.82.31,1.33.71,1.27,1.05-.09.52-1.45.71-3,.43S56.2,280.74,56.29,280.22Z"/><path class="cls-6" d="M60.66,280.13a6.43,6.43,0,0,0-2.86-.47c.11-.53.2-1.11.27-1.72a9.18,9.18,0,0,1,2.73,1.58Z"/><path class="cls-1" d="M77.88,281.11c-.27-.45.64-1.49,2-2.32a7.91,7.91,0,0,1,1.36-.65c.82-.3,1.46-.33,1.64,0s-.63,1.48-2,2.31S78.15,281.56,77.88,281.11Z"/><path class="cls-6" d="M81.14,278.18a9.3,9.3,0,0,0-2.47,1.52l-1-1.48a9.58,9.58,0,0,1,3.14-.6Z"/><path class="cls-6" d="M52.07,249.51c-.64,1.77-2.13,2.86-3.33,2.43s-1.64-2.22-1-4,2.14-2.87,3.33-2.43S52.72,247.73,52.07,249.51Z"/><path class="cls-1" d="M51.92,247.39c-.64,1.78-2.13,2.87-3.33,2.44s-1.64-2.23-1-4,2.13-2.87,3.33-2.44S52.56,245.62,51.92,247.39Z"/><path class="cls-7" d="M51.92,247.39c-.64,1.78-2.13,2.87-3.33,2.44s-1.64-2.23-1-4,2.13-2.87,3.33-2.44S52.56,245.62,51.92,247.39Z"/><path class="cls-6" d="M57.89,230.71c1.87-.27,3.53.54,3.71,1.8s-1.2,2.49-3.07,2.76-3.53-.55-3.71-1.81S56,231,57.89,230.71Z"/><path class="cls-1" d="M57.55,228.67c1.87-.26,3.53.55,3.71,1.81s-1.2,2.49-3.07,2.75-3.53-.54-3.71-1.8S55.68,228.94,57.55,228.67Z"/><path class="cls-7" d="M57.55,228.67c1.87-.26,3.53.55,3.71,1.81s-1.2,2.49-3.07,2.75-3.53-.54-3.71-1.8S55.68,228.94,57.55,228.67Z"/><path class="cls-6" d="M54.94,261.48a2.26,2.26,0,1,1-1.35-2.89A2.26,2.26,0,0,1,54.94,261.48Z"/><path class="cls-1" d="M55.35,260.34A2.25,2.25,0,1,1,54,257.46,2.25,2.25,0,0,1,55.35,260.34Z"/><path class="cls-8" d="M55.35,260.34A2.25,2.25,0,1,1,54,257.46,2.25,2.25,0,0,1,55.35,260.34Z"/><path class="cls-6" d="M75.81,247.75A2.77,2.77,0,1,1,77,244,2.77,2.77,0,0,1,75.81,247.75Z"/><path class="cls-1" d="M77.13,247.06a2.77,2.77,0,1,1,1.18-3.73A2.77,2.77,0,0,1,77.13,247.06Z"/><path class="cls-8" d="M77.13,247.06a2.77,2.77,0,1,1,1.18-3.73A2.77,2.77,0,0,1,77.13,247.06Z"/><path class="cls-6" d="M65,267.47a1.65,1.65,0,1,1-1-2.12A1.64,1.64,0,0,1,65,267.47Z"/><path class="cls-1" d="M65.26,266.64a1.65,1.65,0,1,1-1-2.12A1.64,1.64,0,0,1,65.26,266.64Z"/><path class="cls-8" d="M65.26,266.64a1.65,1.65,0,1,1-1-2.12A1.64,1.64,0,0,1,65.26,266.64Z"/><path class="cls-1" d="M94.69,264.94c-.49-.16-.48-1.52,0-3a8.67,8.67,0,0,1,.59-1.36c.42-.75.88-1.2,1.21-1.09.49.16.49,1.52,0,3S95.18,265.1,94.69,264.94Z"/><path class="cls-6" d="M95.23,260.65a9.44,9.44,0,0,0-.87,2.73l-1.67-.48a9.32,9.32,0,0,1,2-2.48Z"/><path class="cls-1" d="M94.7,246.63c-.51.11-1.19-1.07-1.53-2.63a8.16,8.16,0,0,1-.18-1.47c0-.86.15-1.48.49-1.55.5-.11,1.19,1.07,1.53,2.63S95.21,246.52,94.7,246.63Z"/><path class="cls-6" d="M93,242.66a6.36,6.36,0,0,0,.64,2.79c-.53.1-1.09.24-1.68.4a9.18,9.18,0,0,1,.43-3.08Z"/><path class="cls-1" d="M92.39,230.46c-.39.35-1.56-.34-2.62-1.54a7.25,7.25,0,0,1-.88-1.19c-.44-.74-.59-1.36-.34-1.59s1.56.34,2.62,1.54S92.78,230.12,92.39,230.46Z"/><path class="cls-6" d="M89,227.84A9.19,9.19,0,0,0,90.88,230c-.39.36-.83.78-1.26,1.21a9.37,9.37,0,0,1-1.16-2.94Z"/><path class="cls-1" d="M77,221.17c-.16.49-1.52.49-3,0a8.29,8.29,0,0,1-1.36-.58c-.76-.42-1.2-.88-1.1-1.21.16-.49,1.52-.49,3,0S77.14,220.67,77,221.17Z"/><path class="cls-6" d="M72.69,220.65a6.28,6.28,0,0,0,2.73.85c-.18.51-.34,1.06-.5,1.65a9.08,9.08,0,0,1-2.45-1.92Z"/><path class="cls-6" d="M72.62,264c-1.4,1.27-3.23,1.53-4.08.59s-.41-2.73,1-4,3.22-1.54,4.08-.59S74,262.77,72.62,264Z"/><path class="cls-1" d="M73.86,263.5c-1.4,1.27-3.23,1.54-4.08.6s-.41-2.74,1-4,3.22-1.53,4.08-.59S75.26,262.24,73.86,263.5Z"/><path class="cls-8" d="M73.86,263.5c-1.4,1.27-3.23,1.54-4.08.6s-.41-2.74,1-4,3.22-1.53,4.08-.59S75.26,262.24,73.86,263.5Z"/><circle class="cls-6" cx="63.35" cy="249.09" r="3.42" transform="translate(-190.63 288.51) rotate(-84.55)"/><path class="cls-1" d="M67.24,248.38a3.42,3.42,0,1,1-2-4.38A3.41,3.41,0,0,1,67.24,248.38Z"/><path class="cls-7" d="M67.24,248.38a3.42,3.42,0,1,1-2-4.38A3.41,3.41,0,0,1,67.24,248.38Z"/><g class="cls-5"><path d="M68.52,270.87c.06.29-.43.68-1.42,1.07a14.58,14.58,0,0,1-4.38.8,21,21,0,0,1-3.11-.12,22.52,22.52,0,0,1-10.93-4.34A23,23,0,0,1,41.39,259a21.2,21.2,0,0,1-1-2.94,14.48,14.48,0,0,1-.49-4.43c.09-1.06.33-1.64.62-1.67.64-.07,1.27,2.05,2.78,5,.38.75.83,1.53,1.33,2.36a28.07,28.07,0,0,0,1.75,2.52,24.84,24.84,0,0,0,11,8.18c1,.4,2,.69,2.92,1s1.82.45,2.64.59C66.2,270.24,68.41,270.23,68.52,270.87Z"/></g><g class="cls-5"><path d="M43.16,241.78a2.09,2.09,0,1,1-2.72,1.34A2.14,2.14,0,0,1,43.16,241.78Z"/></g><path class="cls-1" d="M164.81,404.05a31.46,31.46,0,0,0,2.7-12.14c2.74-2.11,12.6-4,12.6-4l-.57-3.7c-4,.6-11.87-.71-13-.91a31.54,31.54,0,0,0-3.85-9c1.18-3.14,5.65-6.68,5.65-6.68l-2.36-2.9a31.43,31.43,0,0,1-7.46,4.29,32.36,32.36,0,0,0-5.66-4.65c-.51-3.35,2.88-13,2.88-13L152.27,350c-1.58,4-7.3,10.65-7.33,10.69a31.87,31.87,0,0,0-9.28-1.37c-2.06-2.66-2.92-8.34-2.92-8.34l-3.7.59a30.88,30.88,0,0,1,0,8.45,32.2,32.2,0,0,0-7.78,2.74c-3.27-1.41-9.82-8.94-9.82-8.94l-2.94,2.39c2.43,3,5.06,9.93,5.64,11.48a32.08,32.08,0,0,0-6.47,8.32c-3.34.27-8-1.57-8-1.57L98.35,378a31.88,31.88,0,0,1,6.88,3.81,31.43,31.43,0,0,0-1.39,8.41c-3.52,1.92-12,3.53-12,3.53l.58,3.74c3.46-.52,9.76.41,12.14.81a31.93,31.93,0,0,0,4,9.73c-1.47,3-5.34,6-5.34,6l2.4,2.93a31.28,31.28,0,0,1,6.76-4,31.88,31.88,0,0,0,11.09,7.65c1,3.69.19,12.88.19,12.88l3.75.48c.44-3.37,2.94-8.92,4-11.23a31.48,31.48,0,0,0,8.51,0,32.76,32.76,0,0,0,4.23-.91c2.15,2.53,3.47,7.11,3.47,7.11l3.62-1.11a31.46,31.46,0,0,1-1.18-8.31,31.7,31.7,0,0,0,10.32-8.39c3.9.82,11.39,5.17,11.39,5.17l2-3.21C170.55,411,165.71,405.16,164.81,404.05ZM130,359.86l-.12,0Z"/><g class="cls-5"><path class="cls-3" d="M158,400.12c-1.55-.57-1.67-3.81-2.68-8.07-.1-.53-.29-1.08-.42-1.65s-.35-1.14-.52-1.73a33,33,0,0,0-1.43-3.61,24.38,24.38,0,0,0-11.49-12,36.21,36.21,0,0,0-3.55-1.58c-.59-.19-1.15-.41-1.71-.58s-1.11-.37-1.63-.48c-4.22-1.19-7.45-1.44-8-3a1.57,1.57,0,0,1,.23-1.27,5,5,0,0,1,1.44-1.46,14.92,14.92,0,0,1,6.54-2.39,19,19,0,0,1,2.33-.21c.82,0,1.67,0,2.55,0a26.64,26.64,0,0,1,5.57,1.05,26.26,26.26,0,0,1,5.82,2.58,27.39,27.39,0,0,1,5.45,4.31,27.93,27.93,0,0,1,4.09,5.62,26.19,26.19,0,0,1,3.17,11.52c0,.88,0,1.73-.06,2.55a23.27,23.27,0,0,1-.3,2.32,15,15,0,0,1-2.65,6.44,5.05,5.05,0,0,1-1.52,1.38A1.54,1.54,0,0,1,158,400.12Z"/></g><path class="cls-1" d="M112.16,351.86c.44.53-.52,2.05-2.14,3.4a10.31,10.31,0,0,1-1.62,1.12c-1,.55-1.83.72-2.12.37-.44-.53.53-2.05,2.15-3.4S111.72,351.34,112.16,351.86Z"/><path class="cls-6" d="M108.55,356.3a12.2,12.2,0,0,0,2.88-2.46c.47.53,1,1.13,1.55,1.72,0,0-2.64,1.42-3.94,1.4Z"/><path class="cls-1" d="M99.3,372.39c.65.23.59,2-.13,4a10.6,10.6,0,0,1-.82,1.78c-.59,1-1.22,1.55-1.64,1.4-.65-.23-.59-2,.13-4S98.66,372.15,99.3,372.39Z"/><path class="cls-6" d="M98.43,378a8.33,8.33,0,0,0,1.25-3.58c.66.26,1.38.5,2.16.73,0,0-1.52,2.51-2.65,3.16Z"/><path class="cls-1" d="M90.55,392.14c.67-.12,1.5,1.48,1.85,3.56a10.69,10.69,0,0,1,.16,2c0,1.13-.3,1.94-.75,2-.67.11-1.5-1.49-1.85-3.57S89.87,392.25,90.55,392.14Z"/><path class="cls-6" d="M92.56,397.49a12,12,0,0,0-.67-3.73c.69-.14,1.47-.29,2.26-.47,0,0-.1,3-.77,4.11Z"/><path class="cls-1" d="M101.3,413.37c.53-.44,2,.51,3.41,2.13a11,11,0,0,1,1.12,1.61c.55,1,.73,1.83.38,2.12-.52.44-2-.52-3.41-2.13S100.77,413.81,101.3,413.37Z"/><path class="cls-6" d="M105.75,417a8.38,8.38,0,0,0-2.47-2.88c.56-.44,1.13-.95,1.72-1.5,0,0,1.41,2.57,1.4,3.87Z"/><path class="cls-1" d="M121.78,434.36c.08-.68,1.84-1,3.94-.79a10.83,10.83,0,0,1,1.92.39c1.09.34,1.79.82,1.73,1.27-.07.69-1.84,1-3.93.8S121.7,435,121.78,434.36Z"/><path class="cls-6" d="M127.48,433.91a12,12,0,0,0-3.76-.39c0-.7.12-1.5.16-2.3,0,0,2.86.93,3.75,1.87Z"/><path class="cls-1" d="M146.31,430.54c-.21-.65,1.25-1.7,3.26-2.34a10.35,10.35,0,0,1,1.91-.44c1.13-.13,2,0,2.11.45.21.65-1.25,1.7-3.26,2.35S146.52,431.2,146.31,430.54Z"/><path class="cls-6" d="M151.32,427.78a8.52,8.52,0,0,0-3.6,1.2c-.19-.68-.45-1.4-.74-2.16,0,0,2.92-.33,4.12.17Z"/><path class="cls-1" d="M171.82,418.45c-.58-.36-.16-2.11.93-3.91a11.18,11.18,0,0,1,1.17-1.58c.77-.84,1.5-1.28,1.88-1,.59.36.17,2.11-.93,3.91S172.41,418.8,171.82,418.45Z"/><path class="cls-6" d="M173.81,413.08a12.18,12.18,0,0,0-1.94,3.26c-.61-.35-1.3-.74-2-1.12,0,0,2.05-2.2,3.28-2.61Z"/><path class="cls-6" d="M122.76,397.59c.34,2.44-.72,4.61-2.37,4.84s-3.25-1.58-3.59-4,.73-4.61,2.37-4.84S122.42,395.14,122.76,397.59Z"/><path class="cls-1" d="M121.3,395.24c.33,2.44-.73,4.61-2.37,4.83s-3.25-1.57-3.59-4,.72-4.61,2.37-4.83S121,392.79,121.3,395.24Z"/><path class="cls-7" d="M121.3,395.24c.33,2.44-.73,4.61-2.37,4.83s-3.25-1.57-3.59-4,.72-4.61,2.37-4.83S121,392.79,121.3,395.24Z"/><path class="cls-6" d="M118.06,372.31c2-1.44,4.41-1.52,5.38-.17s.14,3.61-1.87,5.05-4.41,1.52-5.38.17S116.05,373.75,118.06,372.31Z"/><path class="cls-1" d="M116.43,370.16c2-1.44,4.41-1.51,5.38-.17s.14,3.61-1.87,5.06-4.41,1.51-5.38.17S114.43,371.61,116.43,370.16Z"/><path class="cls-7" d="M116.43,370.16c2-1.44,4.41-1.51,5.38-.17s.14,3.61-1.87,5.06-4.41,1.51-5.38.17S114.43,371.61,116.43,370.16Z"/><path class="cls-6" d="M133.35,409.69a2.94,2.94,0,1,1-3.31-2.51A2.95,2.95,0,0,1,133.35,409.69Z"/><path class="cls-1" d="M133.14,408.13a2.94,2.94,0,1,1-3.32-2.52A2.94,2.94,0,0,1,133.14,408.13Z"/><path class="cls-8" d="M133.14,408.13a2.94,2.94,0,1,1-3.32-2.52A2.94,2.94,0,0,1,133.14,408.13Z"/><path class="cls-6" d="M149.14,381.12a3.62,3.62,0,1,1-.9-5A3.61,3.61,0,0,1,149.14,381.12Z"/><path class="cls-1" d="M150.25,379.53a3.62,3.62,0,1,1-.91-5A3.62,3.62,0,0,1,150.25,379.53Z"/><path class="cls-8" d="M150.25,379.53a3.62,3.62,0,1,1-.91-5A3.62,3.62,0,0,1,150.25,379.53Z"/><path class="cls-6" d="M148.59,410.52a2.16,2.16,0,1,1-4.27.59,2.16,2.16,0,1,1,4.27-.59Z"/><path class="cls-1" d="M148.43,409.38a2.16,2.16,0,1,1-2.43-1.84A2.15,2.15,0,0,1,148.43,409.38Z"/><path class="cls-8" d="M148.43,409.38a2.16,2.16,0,1,1-2.43-1.84A2.15,2.15,0,0,1,148.43,409.38Z"/><path class="cls-1" d="M181.44,389.53c-.67.11-1.49-1.47-1.84-3.52a11.42,11.42,0,0,1-.15-1.94c0-1.12.29-1.92.74-2,.66-.11,1.49,1.46,1.83,3.52S182.1,389.41,181.44,389.53Z"/><path class="cls-6" d="M179.45,384.24a11.91,11.91,0,0,0,.66,3.68c-.68.14-1.46.29-2.24.47,0,0,.11-3,.76-4.07Z"/><path class="cls-1" d="M170.31,368.34c-.52.44-2-.51-3.36-2.1a10.53,10.53,0,0,1-1.11-1.59c-.55-1-.72-1.81-.38-2.1.52-.43,2,.51,3.37,2.11S170.83,367.91,170.31,368.34Z"/><path class="cls-6" d="M165.92,364.79a8.36,8.36,0,0,0,2.43,2.84c-.55.43-1.11.94-1.7,1.48,0,0-1.38-2.54-1.37-3.82Z"/><path class="cls-1" d="M157.81,351.05c-.24.63-2,.55-4-.19a10.46,10.46,0,0,1-1.74-.84c-1-.59-1.51-1.22-1.36-1.64.24-.63,2-.55,4,.19S158.05,350.42,157.81,351.05Z"/><path class="cls-6" d="M152.24,350.11a12.2,12.2,0,0,0,3.51,1.28c-.22.65-.48,1.4-.72,2.16,0,0-2.5-1.58-3.13-2.7Z"/><path class="cls-1" d="M134.34,349.67c.11.67-1.46,1.49-3.52,1.85a10.32,10.32,0,0,1-1.93.15c-1.12,0-1.92-.28-2-.72-.11-.67,1.46-1.5,3.52-1.85S134.22,349,134.34,349.67Z"/><path class="cls-6" d="M129.06,351.68a8.29,8.29,0,0,0,3.68-.68c.09.7.24,1.44.42,2.22,0,0-2.89-.08-4-.74Z"/><path class="cls-6" d="M155.36,401.9c-.85,2.32-2.8,3.74-4.36,3.17s-2.14-2.91-1.29-5.23,2.8-3.74,4.36-3.17S156.2,399.58,155.36,401.9Z"/><path class="cls-1" d="M156.47,400.53c-.85,2.32-2.8,3.74-4.36,3.17s-2.14-2.92-1.29-5.23,2.8-3.74,4.36-3.17S157.32,398.21,156.47,400.53Z"/><path class="cls-8" d="M156.47,400.53c-.85,2.32-2.8,3.74-4.36,3.17s-2.14-2.92-1.29-5.23,2.8-3.74,4.36-3.17S157.32,398.21,156.47,400.53Z"/><path class="cls-6" d="M140,389.64a4.47,4.47,0,1,1-5-3.82A4.47,4.47,0,0,1,140,389.64Z"/><path class="cls-1" d="M139.62,387.07a4.47,4.47,0,1,1-5-3.82A4.47,4.47,0,0,1,139.62,387.07Z"/><path class="cls-7" d="M139.62,387.07a4.47,4.47,0,1,1-5-3.82A4.47,4.47,0,0,1,139.62,387.07Z"/><g class="cls-5"><path d="M154.78,412.29c.24.31-.09,1.06-1,2.1a18.6,18.6,0,0,1-4.59,3.59,27.79,27.79,0,0,1-3.66,1.76,29.66,29.66,0,0,1-29.32-4.63,27.55,27.55,0,0,1-2.94-2.8,18.57,18.57,0,0,1-3.26-4.83c-.54-1.27-.62-2.09-.3-2.31.7-.47,2.72,1.6,6.27,4.12.89.63,1.89,1.27,3,1.93s2.27,1.27,3.56,1.84a34.3,34.3,0,0,0,8.63,2.64,33.94,33.94,0,0,0,9,.15,36.52,36.52,0,0,0,4-.66c1.23-.29,2.38-.59,3.42-.92C151.7,413,154.25,411.63,154.78,412.29Z"/></g><g class="cls-5"><path d="M107.75,394.07a2.73,2.73,0,1,1-2.32,3.2A2.8,2.8,0,0,1,107.75,394.07Z"/></g><path class="cls-1" d="M295.17,262a68.7,68.7,0,0,0,4.79-26.6c5.76-4.83,27-9.78,27-9.78l-1.57-8c-8.54,1.65-25.81-.51-28.26-.83a68.86,68.86,0,0,0-9.17-19.2c2.28-6.93,11.68-15,11.68-15l-5.39-6.08a67.9,67.9,0,0,1-15.81,10,69.64,69.64,0,0,0-12.69-9.58c-1.42-7.23,5.1-28.44,5.1-28.44l-7.68-2.66c-3.09,8.82-14.9,23.77-15,23.86a68.36,68.36,0,0,0-20.27-2.15c-4.7-5.6-7.08-17.85-7.08-17.85l-8,1.6a66.31,66.31,0,0,1,.72,18.36A68.57,68.57,0,0,0,197,176.3c-7.24-2.79-22.11-18.54-22.11-18.54l-6.18,5.43c5.53,6.33,11.87,21.13,13.25,24.44a69.45,69.45,0,0,0-13.29,18.63c-7.23.87-17.48-2.69-17.48-2.69l-2.57,7.81a67.69,67.69,0,0,1,15.27,7.67,68.88,68.88,0,0,0-2.27,18.37c-7.46,4.48-25.62,8.73-25.62,8.73l1.59,8.07c7.46-1.44,21.22,0,26.43.67a68.8,68.8,0,0,0,9.57,20.78c-2.93,6.64-11,13.61-11,13.61l5.45,6.15a67.38,67.38,0,0,1,14.33-9.35A69.47,69.47,0,0,0,207,301.71c2.57,7.9,1.53,27.94,1.53,27.94l8.2.71c.66-7.37,5.6-19.63,7.77-24.73a66,66,0,0,0,27.58-3.1c4.91,5.3,8.18,15.13,8.18,15.13l7.76-2.73A67.77,67.77,0,0,1,264.74,297a69.18,69.18,0,0,0,21.66-19.13c8.54,1.44,25.19,10.2,25.19,10.2l4.09-7.14C308.24,276.64,297.23,264.36,295.17,262Zm-79.48-92.86-.26.06Z"/><g class="cls-5"><path class="cls-3" d="M280,254.1c-3.41-1.12-4-8.13-6.54-17.28-.25-1.15-.71-2.33-1.05-3.55s-.85-2.45-1.27-3.71a77.85,77.85,0,0,0-3.43-7.72,53.05,53.05,0,0,0-26-25,77.27,77.27,0,0,0-7.85-3.1c-1.28-.36-2.54-.79-3.77-1.12s-2.42-.69-3.58-.9c-9.26-2.19-16.29-2.44-17.54-5.81a3.3,3.3,0,0,1,.39-2.75,11,11,0,0,1,3-3.32c2.88-2.31,7.65-4.55,14-5.76a44.84,44.84,0,0,1,5-.67c1.77-.15,3.61-.14,5.54-.13a56.86,56.86,0,0,1,12.18,1.79A57.77,57.77,0,0,1,262,180.2a55.58,55.58,0,0,1,21.59,20.71,57.11,57.11,0,0,1,7.92,24.73c.09,1.92.17,3.76.09,5.53a44.45,44.45,0,0,1-.45,5.07c-.95,6.4-3,11.27-5.18,14.23a10.87,10.87,0,0,1-3.18,3.12A3.35,3.35,0,0,1,280,254.1Z"/></g><path class="cls-1" d="M176.24,153.39c1,1.11-1,4.49-4.35,7.57a23,23,0,0,1-3.41,2.56c-2.12,1.29-3.91,1.74-4.57,1-1-1.11,1-4.5,4.36-7.57S175.24,152.29,176.24,153.39Z"/><path class="cls-6" d="M168.79,163.34a26.47,26.47,0,0,0,6.05-5.58c1,1.1,2.26,2.35,3.51,3.58,0,0-5.62,3.32-8.44,3.41Z"/><path class="cls-1" d="M150.14,199.09c1.42.45,1.46,4.36.08,8.73a23.14,23.14,0,0,1-1.64,3.94c-1.18,2.18-2.49,3.47-3.43,3.17-1.42-.44-1.45-4.35-.08-8.73S148.72,198.64,150.14,199.09Z"/><path class="cls-6" d="M148.75,211.44s2.41-4.09,2.39-7.87c1.45.5,3.06,1,4.76,1.39,0,0-3.08,5.58-5.46,7.09Z"/><path class="cls-1" d="M132.88,242.74c1.46-.31,3.41,3.08,4.35,7.57a22.68,22.68,0,0,1,.51,4.24c0,2.47-.47,4.24-1.44,4.45-1.45.3-3.4-3.09-4.35-7.58S131.43,243.05,132.88,242.74Z"/><path class="cls-6" d="M137.73,254.19a26.55,26.55,0,0,0-1.78-8c1.48-.36,3.17-.77,4.86-1.23,0,0,.05,6.52-1.3,9Z"/><path class="cls-1" d="M158.11,287.89c1.11-1,4.5.93,7.59,4.32a23.31,23.31,0,0,1,2.58,3.4c1.29,2.11,1.74,3.9,1,4.56-1.1,1-4.49-.93-7.58-4.33S157,288.89,158.11,287.89Z"/><path class="cls-6" d="M168.09,295.3s-2.32-4.14-5.6-6c1.16-1,2.36-2.16,3.59-3.41,0,0,3.28,5.46,3.38,8.28Z"/><path class="cls-1" d="M204.44,331.65c.11-1.49,3.9-2.42,8.48-2.08a22.31,22.31,0,0,1,4.2.69c2.4.64,4,1.62,3.88,2.61-.11,1.48-3.9,2.41-8.48,2.08S204.33,333.13,204.44,331.65Z"/><path class="cls-6" d="M216.78,330.16a26.58,26.58,0,0,0-8.22-.51c.07-1.52.14-3.26.17-5,0,0,6.28,1.77,8.29,3.75Z"/><path class="cls-1" d="M257.35,321.18c-.51-1.4,2.56-3.81,6.87-5.39a22.89,22.89,0,0,1,4.12-1.1c2.44-.39,4.27-.15,4.61.78.51,1.4-2.57,3.81-6.87,5.39S257.86,322.58,257.35,321.18Z"/><path class="cls-6" d="M268,314.75s-4.71.58-7.69,2.91c-.49-1.46-1.11-3-1.8-4.62,0,0,6.3-1,8.94,0Z"/><path class="cls-1" d="M311.67,292.66c-1.3-.73-.55-4.56,1.68-8.57a21.9,21.9,0,0,1,2.39-3.53c1.59-1.9,3.13-2.91,4-2.43,1.3.72.55,4.56-1.68,8.57S313,293.38,311.67,292.66Z"/><path class="cls-6" d="M315.51,280.83a26.46,26.46,0,0,0-3.92,7.24c-1.35-.7-2.9-1.49-4.48-2.25,0,0,4.24-5,6.88-5.95Z"/><path class="cls-6" d="M203.31,251.72c.94,5.28-1.17,10.08-4.72,10.72s-7.2-3.13-8.15-8.41,1.17-10.08,4.72-10.71S202.36,246.44,203.31,251.72Z"/><path class="cls-1" d="M199.92,246.74c1,5.28-1.16,10.08-4.72,10.72s-7.19-3.13-8.14-8.41,1.16-10.07,4.72-10.71S199,241.46,199.92,246.74Z"/><path class="cls-7" d="M199.92,246.74c1,5.28-1.16,10.08-4.72,10.72s-7.19-3.13-8.14-8.41,1.16-10.07,4.72-10.71S199,241.46,199.92,246.74Z"/><path class="cls-6" d="M190.86,197.26c4.22-3.31,9.45-3.69,11.67-.85s.61,7.82-3.61,11.13-9.45,3.69-11.68.85S186.64,200.57,190.86,197.26Z"/><path class="cls-1" d="M187.13,192.75c4.22-3.31,9.45-3.69,11.67-.85s.61,7.82-3.61,11.13-9.45,3.69-11.67.85S182.91,196.05,187.13,192.75Z"/><path class="cls-7" d="M187.13,192.75c4.22-3.31,9.45-3.69,11.67-.85s.61,7.82-3.61,11.13-9.45,3.69-11.67.85S182.91,196.05,187.13,192.75Z"/><path class="cls-6" d="M227.37,277.06a6.39,6.39,0,1,1-7.42-5.17A6.39,6.39,0,0,1,227.37,277.06Z"/><path class="cls-1" d="M226.77,273.69a6.39,6.39,0,1,1-7.42-5.17A6.4,6.4,0,0,1,226.77,273.69Z"/><path class="cls-8" d="M226.77,273.69a6.39,6.39,0,1,1-7.42-5.17A6.4,6.4,0,0,1,226.77,273.69Z"/><circle class="cls-6" cx="252.49" cy="209.41" r="7.86" transform="matrix(0.98, -0.22, 0.22, 0.98, -39.82, 60.56)"/><path class="cls-1" d="M261.38,210.08A7.86,7.86,0,1,1,259,199.22,7.86,7.86,0,0,1,261.38,210.08Z"/><path class="cls-8" d="M261.38,210.08A7.86,7.86,0,1,1,259,199.22,7.86,7.86,0,0,1,261.38,210.08Z"/><path class="cls-6" d="M260.53,277.52a4.69,4.69,0,1,1-5.44-3.79A4.69,4.69,0,0,1,260.53,277.52Z"/><path class="cls-1" d="M260.09,275.05a4.69,4.69,0,1,1-5.44-3.79A4.7,4.7,0,0,1,260.09,275.05Z"/><path class="cls-8" d="M260.09,275.05a4.69,4.69,0,1,1-5.44-3.79A4.7,4.7,0,0,1,260.09,275.05Z"/><path class="cls-1" d="M330,229c-1.44.3-3.37-3.05-4.3-7.48a22.79,22.79,0,0,1-.49-4.18c0-2.45.46-4.2,1.41-4.4,1.44-.3,3.37,3,4.3,7.48S331.42,228.72,330,229Z"/><path class="cls-6" d="M325.19,217.71a26.29,26.29,0,0,0,1.76,7.94c-1.46.35-3.13.76-4.81,1.21,0,0,0-6.44,1.29-8.89Z"/><path class="cls-1" d="M304,184c-1.09,1-4.44-.93-7.49-4.28a22.77,22.77,0,0,1-2.55-3.36c-1.27-2.09-1.72-3.85-1-4.51,1.09-1,4.44.93,7.49,4.28S305,183,304,184Z"/><path class="cls-6" d="M294.1,176.69s2.29,4.09,5.53,5.95c-1.15,1-2.34,2.13-3.55,3.37,0,0-3.24-5.4-3.34-8.19Z"/><path class="cls-1" d="M275.27,147.58c-.46,1.39-4.32,1.37-8.62-.06a22.26,22.26,0,0,1-3.87-1.67c-2.13-1.2-3.39-2.51-3.08-3.44.46-1.39,4.32-1.37,8.62.06S275.74,146.18,275.27,147.58Z"/><path class="cls-6" d="M263.09,146a26.2,26.2,0,0,0,7.75,2.48c-.43,1.44-.92,3.09-1.37,4.76,0,0-5.59-3.2-7-5.58Z"/><path class="cls-1" d="M224.19,146.66c.31,1.44-3,3.38-7.46,4.32a23,23,0,0,1-4.18.52c-2.45,0-4.2-.45-4.41-1.4-.3-1.44,3-3.38,7.47-4.33S223.88,145.22,224.19,146.66Z"/><path class="cls-6" d="M212.9,151.49s4.69.08,7.93-1.79c.28,1.5.67,3.1,1.12,4.77,0,0-6.29.08-8.75-1.24Z"/><path class="cls-6" d="M274.46,258.2c-1.64,5.11-5.75,8.36-9.18,7.26s-4.9-6.13-3.27-11.24,5.75-8.36,9.18-7.26S276.09,253.09,274.46,258.2Z"/><path class="cls-1" d="M276.75,255.12c-1.64,5.11-5.75,8.36-9.19,7.26s-4.89-6.13-3.26-11.24,5.74-8.36,9.18-7.26S278.38,250,276.75,255.12Z"/><path class="cls-8" d="M276.75,255.12c-1.64,5.11-5.75,8.36-9.19,7.26s-4.89-6.13-3.26-11.24,5.74-8.36,9.18-7.26S278.38,250,276.75,255.12Z"/><path class="cls-6" d="M240,232.94a9.71,9.71,0,1,1-11.27-7.84A9.71,9.71,0,0,1,240,232.94Z"/><path class="cls-1" d="M239,227.38a9.71,9.71,0,1,1-11.28-7.84A9.72,9.72,0,0,1,239,227.38Z"/><path class="cls-7" d="M239,227.38a9.71,9.71,0,1,1-11.28-7.84A9.72,9.72,0,0,1,239,227.38Z"/><g class="cls-10"><path d="M274.12,280.81c.54.64-.1,2.3-2,4.65a40.28,40.28,0,0,1-9.63,8.19,59.26,59.26,0,0,1-7.79,4.15,64.47,64.47,0,0,1-64.08-7.46,59.56,59.56,0,0,1-6.63-5.82,40.41,40.41,0,0,1-7.49-10.19c-1.3-2.72-1.54-4.48-.87-5,1.49-1.09,6,3.23,14,8.38,2,1.3,4.21,2.59,6.61,3.92s5,2.57,7.89,3.69a70.64,70.64,0,0,0,38.59,4.49c3-.44,5.86-1.12,8.53-1.78s5.11-1.49,7.33-2.3C267.5,282.56,272.92,279.41,274.12,280.81Z"/></g><g class="cls-10"><path d="M170.42,245.41a5.93,5.93,0,1,1-4.77,7.16A6.09,6.09,0,0,1,170.42,245.41Z"/></g><path class="cls-1" d="M377.9,84.6a36.47,36.47,0,0,0-3.51-13.84c1.71-3.58,10.84-10.61,10.84-10.61l-2.5-3.49C379,59.32,370.2,62.06,369,62.44a36.43,36.43,0,0,0-8.6-7.23c-.42-3.83,2.33-9.77,2.33-9.77l-3.92-1.75a36,36,0,0,1-5.43,8.25,36.58,36.58,0,0,0-8.2-1.83c-2.26-3.17-3.77-14.8-3.77-14.8l-4.27.4c.44,4.92-2,14.69-2,14.75a36.48,36.48,0,0,0-10.22,3.4c-3.49-1.66-7.31-7-7.31-7l-3.48,2.51A35.58,35.58,0,0,1,318.45,58a35.81,35.81,0,0,0-6.55,6.83c-4.09.24-14.7-4.08-14.7-4.08l-1.78,4c4.05,1.84,10.33,7.57,11.72,8.86a36.81,36.81,0,0,0-2.32,11.87c-3.29,2-9,2.53-9,2.53l.47,4.32a35.6,35.6,0,0,1,9,.35,36.32,36.32,0,0,0,2.92,9.33c-2.6,3.79-10.41,9.81-10.41,9.81l2.53,3.53c3.27-2.32,10.21-4.63,12.86-5.45a36.45,36.45,0,0,0,9.15,7.9c0,3.83-2.34,9-2.34,9l4,1.77a35.35,35.35,0,0,1,4.85-7.63,36.59,36.59,0,0,0,15.32,2.1c3,3.24,6.85,13.1,6.85,13.1l4.1-1.44c-1.29-3.7-1.6-10.68-1.67-13.6a36.46,36.46,0,0,0,8.72-4.4,37.15,37.15,0,0,0,3.87-3.12c3.52,1.47,7.24,5.49,7.24,5.49l3.14-3a35.79,35.79,0,0,1-5.51-7.91,36.42,36.42,0,0,0,6.23-13.94c4.43-1.17,14.35-.6,14.35-.6l.41-4.33C387.38,88.78,379.4,85.27,377.9,84.6ZM319.35,57.31l-.11.09Z"/><g class="cls-5"><path class="cls-3" d="M368.87,84.1c-1.88.21-3.68-3-6.92-6.88-.38-.5-.86-1-1.28-1.48s-.95-1-1.43-1.5a40.73,40.73,0,0,0-3.33-3,28,28,0,0,0-18-6.31,39.89,39.89,0,0,0-4.45.23c-.7.1-1.39.17-2.06.28s-1.31.2-1.92.35c-4.93,1-8.37,2.39-9.71,1a1.78,1.78,0,0,1-.41-1.41,5.81,5.81,0,0,1,.71-2.25,17.1,17.1,0,0,1,5.48-5.83,23.46,23.46,0,0,1,2.28-1.43c.81-.45,1.7-.85,2.63-1.27a29.61,29.61,0,0,1,6.26-1.8A30,30,0,0,1,344,52.5a29.36,29.36,0,0,1,14.91,5.24,30.2,30.2,0,0,1,9.22,10.17c.46.9.91,1.77,1.26,2.64a24.68,24.68,0,0,1,.88,2.53,17.18,17.18,0,0,1,.63,8,5.77,5.77,0,0,1-.85,2.2A1.73,1.73,0,0,1,368.87,84.1Z"/></g><path class="cls-1" d="M296.93,58.35c.72.31.52,2.37-.44,4.59a11.73,11.73,0,0,1-1.08,2c-.74,1.08-1.5,1.69-2,1.48-.72-.31-.52-2.37.44-4.59S296.2,58,296.93,58.35Z"/><path class="cls-6" d="M295.52,64.77a14.07,14.07,0,0,0,1.68-4c.75.3,1.61.63,2.48,1,0,0-2,2.83-3.32,3.49Z"/><path class="cls-1" d="M294.36,86c.79-.09,1.66,1.78,1.95,4.19a11.6,11.6,0,0,1,.07,2.25c-.09,1.31-.44,2.21-.95,2.28-.78.09-1.66-1.78-1.95-4.19S293.58,86.14,294.36,86Z"/><path class="cls-6" d="M296.4,92.29a9.66,9.66,0,0,0-.58-4.31c.81-.08,1.68-.21,2.6-.37,0,0-.26,3.36-1.08,4.6Z"/><path class="cls-1" d="M295.61,110.82c.63-.47,2.31.74,3.75,2.69a11.6,11.6,0,0,1,1.16,1.93c.57,1.18.71,2.14.29,2.45-.63.47-2.31-.74-3.75-2.69S295,111.28,295.61,110.82Z"/><path class="cls-6" d="M300.44,115.26a13.81,13.81,0,0,0-2.61-3.47c.63-.5,1.35-1.07,2.07-1.66,0,0,1.45,3.13,1.34,4.62Z"/><path class="cls-1" d="M317.62,127c.31-.72,2.37-.54,4.6.42a13.44,13.44,0,0,1,2,1.07c1.08.74,1.69,1.5,1.49,2-.31.73-2.37.54-4.6-.42S317.31,127.74,317.62,127Z"/><path class="cls-6" d="M324,128.4a9.64,9.64,0,0,0-4-1.67c.34-.74.66-1.55,1-2.43,0,0,2.77,1.92,3.44,3.25Z"/><path class="cls-1" d="M349.48,137.94c-.28-.74,1.35-2,3.62-2.86a11.64,11.64,0,0,1,2.18-.58c1.29-.22,2.25-.09,2.43.4.27.74-1.35,2-3.62,2.86S349.75,138.68,349.48,137.94Z"/><path class="cls-6" d="M355.09,134.53a13.92,13.92,0,0,0-4.07,1.54c-.3-.74-.64-1.59-1-2.44,0,0,3.4-.53,4.8,0Z"/><path class="cls-1" d="M372.64,121.33c-.55-.56.4-2.39,2.13-4.09a11.31,11.31,0,0,1,1.74-1.43c1.09-.73,2-1,2.39-.64.55.56-.4,2.4-2.13,4.1S373.19,121.89,372.64,121.33Z"/><path class="cls-6" d="M376.35,115.91a9.61,9.61,0,0,0-3.07,3.09c-.55-.6-1.18-1.21-1.87-1.83,0,0,2.82-1.85,4.3-2Z"/><path class="cls-1" d="M392.54,95.73c-.79-.06-1.27-2.07-1.07-4.49a11.37,11.37,0,0,1,.38-2.22c.35-1.26.87-2.08,1.39-2,.78.06,1.26,2.07,1.07,4.49S393.32,95.79,392.54,95.73Z"/><path class="cls-6" d="M391.8,89.2a14.18,14.18,0,0,0-.31,4.34c-.8,0-1.72-.08-2.64-.1,0,0,.95-3.32,2-4.37Z"/><path class="cls-6" d="M331.45,99.74c1.61,2.33,1.64,5.1.08,6.18s-4.15.07-5.76-2.26-1.65-5.1-.08-6.19S329.84,97.4,331.45,99.74Z"/><path class="cls-1" d="M328.73,98.08c1.61,2.33,1.65,5.1.08,6.19s-4.15.07-5.76-2.26-1.64-5.11-.07-6.19S327.12,95.75,328.73,98.08Z"/><path class="cls-7" d="M328.73,98.08c1.61,2.33,1.65,5.1.08,6.19s-4.15.07-5.76-2.26-1.64-5.11-.07-6.19S327.12,95.75,328.73,98.08Z"/><path class="cls-6" d="M313.55,76.26c1.31-2.52,3.74-3.84,5.43-3s2,3.63.7,6.14-3.74,3.84-5.43,3S312.24,78.77,313.55,76.26Z"/><path class="cls-1" d="M310.77,74.9c1.31-2.51,3.74-3.84,5.43-3s2,3.63.7,6.15-3.74,3.84-5.43,3S309.46,77.42,310.77,74.9Z"/><path class="cls-7" d="M310.77,74.9c1.31-2.51,3.74-3.84,5.43-3s2,3.63.7,6.15-3.74,3.84-5.43,3S309.46,77.42,310.77,74.9Z"/><path class="cls-6" d="M348.57,106.66a3.38,3.38,0,1,1-4.7-.86A3.38,3.38,0,0,1,348.57,106.66Z"/><path class="cls-1" d="M347.54,105.17a3.38,3.38,0,1,1-4.7-.86A3.37,3.37,0,0,1,347.54,105.17Z"/><path class="cls-8" d="M347.54,105.17a3.38,3.38,0,1,1-4.7-.86A3.37,3.37,0,0,1,347.54,105.17Z"/><path class="cls-6" d="M350,69.2a4.16,4.16,0,1,1-3.53-4.69A4.15,4.15,0,0,1,350,69.2Z"/><path class="cls-1" d="M350.28,67a4.15,4.15,0,1,1-3.53-4.69A4.15,4.15,0,0,1,350.28,67Z"/><path class="cls-8" d="M350.28,67a4.15,4.15,0,1,1-3.53-4.69A4.15,4.15,0,0,1,350.28,67Z"/><path class="cls-6" d="M364.62,99.63a2.48,2.48,0,1,1-3.44-.63A2.48,2.48,0,0,1,364.62,99.63Z"/><path class="cls-1" d="M363.87,98.54a2.48,2.48,0,1,1-3.45-.63A2.47,2.47,0,0,1,363.87,98.54Z"/><path class="cls-8" d="M363.87,98.54a2.48,2.48,0,1,1-3.45-.63A2.47,2.47,0,0,1,363.87,98.54Z"/><path class="cls-1" d="M387.42,61.11c-.62.46-2.28-.73-3.7-2.66a11.74,11.74,0,0,1-1.15-1.9c-.55-1.17-.7-2.12-.28-2.43.63-.46,2.28.73,3.7,2.66S388.05,60.65,387.42,61.11Z"/><path class="cls-6" d="M382.65,56.72a13.83,13.83,0,0,0,2.58,3.43c-.62.49-1.34,1.05-2,1.64,0,0-1.43-3.09-1.33-4.56Z"/><path class="cls-1" d="M365.06,45.15c-.31.72-2.34.53-4.54-.42a12.31,12.31,0,0,1-2-1c-1.07-.73-1.67-1.48-1.47-2,.31-.72,2.34-.53,4.54.42S365.37,44.44,365.06,45.15Z"/><path class="cls-6" d="M358.72,43.78a9.55,9.55,0,0,0,4,1.66c-.33.72-.66,1.53-1,2.39,0,0-2.74-1.89-3.39-3.2Z"/><path class="cls-1" d="M343.3,33.89c.08.78-1.78,1.61-4.17,1.87a12.89,12.89,0,0,1-2.22,0c-1.29-.11-2.18-.47-2.24-1-.08-.78,1.78-1.61,4.16-1.86S343.21,33.12,343.3,33.89Z"/><path class="cls-6" d="M337.1,35.81a13.87,13.87,0,0,0,4.26-.5c.11.79.24,1.68.39,2.59,0,0-3.39-.32-4.61-1.15Z"/><path class="cls-1" d="M318.52,44.63c.46.62-.72,2.28-2.64,3.71A13.13,13.13,0,0,1,314,49.5c-1.17.56-2.12.7-2.43.29-.46-.63.72-2.29,2.65-3.71S318.06,44,318.52,44.63Z"/><path class="cls-6" d="M314.15,49.42a9.5,9.5,0,0,0,3.42-2.6c.46.66,1,1.35,1.58,2,0,0-3,1.42-4.48,1.32Z"/><path class="cls-6" d="M367.1,87.29c.33,2.82-.94,5.28-2.83,5.5s-3.7-1.88-4-4.69.93-5.28,2.83-5.5S366.77,84.48,367.1,87.29Z"/><path class="cls-1" d="M367.53,85.31c.33,2.81-.94,5.28-2.83,5.5s-3.7-1.88-4-4.69.93-5.28,2.83-5.5S367.19,82.49,367.53,85.31Z"/><path class="cls-8" d="M367.53,85.31c.33,2.81-.94,5.28-2.83,5.5s-3.7-1.88-4-4.69.93-5.28,2.83-5.5S367.19,82.49,367.53,85.31Z"/><path class="cls-6" d="M345,82.68a5.13,5.13,0,1,1-7.14-1.3A5.13,5.13,0,0,1,345,82.68Z"/><path class="cls-1" d="M343.28,80.23a5.13,5.13,0,1,1-7.13-1.31A5.13,5.13,0,0,1,343.28,80.23Z"/><path class="cls-7" d="M343.28,80.23a5.13,5.13,0,1,1-7.13-1.31A5.13,5.13,0,0,1,343.28,80.23Z"/><g class="cls-10"><path d="M371.88,98.24c.4.19.45,1.13.06,2.67a21.07,21.07,0,0,1-2.84,6,31.09,31.09,0,0,1-2.84,3.7,34.14,34.14,0,0,1-3.92,3.69,33.88,33.88,0,0,1-23.21,7.46,34.15,34.15,0,0,1-5.33-.72,31.91,31.91,0,0,1-4.46-1.35,21.64,21.64,0,0,1-5.84-3.26c-1.22-1-1.72-1.83-1.5-2.21.48-.85,3.61.23,8.56,1,1.24.19,2.59.33,4,.44s3,.13,4.6,0a37.31,37.31,0,0,0,19.55-6.28,45.72,45.72,0,0,0,3.71-2.72c1.11-.94,2.13-1.84,3-2.71C369.08,100.53,371,97.83,371.88,98.24Z"/></g><g class="cls-10"><path d="M314.25,103.9a3.13,3.13,0,1,1-.73,4.48A3.21,3.21,0,0,1,314.25,103.9Z"/></g><path class="cls-1" d="M256.91,95.92a6.1,6.1,0,0,0-.58-2.31,9.08,9.08,0,0,1,1.8-1.76l-.41-.59a10.86,10.86,0,0,1-2.3,1A6.05,6.05,0,0,0,254,91a4,4,0,0,1,.39-1.62l-.66-.3a6,6,0,0,1-.9,1.38,6.33,6.33,0,0,0-1.37-.31,9,9,0,0,1-.62-2.46l-.72.07a9.85,9.85,0,0,1-.33,2.45,6,6,0,0,0-1.7.57,4.47,4.47,0,0,1-1.22-1.17l-.58.41a5.65,5.65,0,0,1,.73,1.45,5.86,5.86,0,0,0-1.09,1.14,9.47,9.47,0,0,1-2.45-.68l-.3.66a10,10,0,0,1,2,1.47,6.11,6.11,0,0,0-.39,2,4.39,4.39,0,0,1-1.5.42l.08.72a5.42,5.42,0,0,1,1.5.06,5.82,5.82,0,0,0,.49,1.55,11.13,11.13,0,0,1-1.73,1.64l.42.58a9.37,9.37,0,0,1,2.14-.9,6.08,6.08,0,0,0,1.52,1.31,4.23,4.23,0,0,1-.39,1.49l.66.3a5.72,5.72,0,0,1,.81-1.27,6.34,6.34,0,0,0,2.55.35,10,10,0,0,1,1.14,2.18l.69-.24a9.07,9.07,0,0,1-.28-2.27,5.81,5.81,0,0,0,1.45-.73,6.44,6.44,0,0,0,.65-.52,4.51,4.51,0,0,1,1.2.92l.52-.51a5.6,5.6,0,0,1-.91-1.31,6,6,0,0,0,1-2.32,10.71,10.71,0,0,1,2.39-.1l.07-.72A10.65,10.65,0,0,1,256.91,95.92Zm-9.75-4.55,0,0Z"/><g class="cls-5"><path class="cls-3" d="M255.41,95.84c-.32,0-.62-.51-1.16-1.15l-.21-.25-.24-.25c-.17-.16-.35-.33-.55-.49a5.09,5.09,0,0,0-1.41-.79,4.9,4.9,0,0,0-1.59-.26,6,6,0,0,0-.74,0l-.34,0a3,3,0,0,0-.32.06c-.82.16-1.39.4-1.62.17a.32.32,0,0,1-.07-.23,1.17,1.17,0,0,1,.12-.38,3,3,0,0,1,.91-1l.38-.23c.14-.08.29-.15.44-.22a6,6,0,0,1,1-.3,5.4,5.4,0,0,1,1.22-.06,5.11,5.11,0,0,1,1.3.27,4.54,4.54,0,0,1,1.18.61,4.74,4.74,0,0,1,.91.8,5,5,0,0,1,.63.89,4.39,4.39,0,0,1,.21.44c.05.14.11.28.15.42a2.92,2.92,0,0,1,.1,1.33,1,1,0,0,1-.14.36A.31.31,0,0,1,255.41,95.84Z"/></g><path class="cls-1" d="M243.42,91.55c.13,0,.09.39-.07.76a1.29,1.29,0,0,1-.18.33c-.12.18-.25.28-.33.25s-.08-.4.08-.77S243.3,91.49,243.42,91.55Z"/><path class="cls-6" d="M243.19,92.61a2.35,2.35,0,0,0,.28-.66l.41.16a2.43,2.43,0,0,1-.55.58Z"/><path class="cls-1" d="M243,96.16c.13,0,.27.29.32.69a1.65,1.65,0,0,1,0,.38c0,.22-.07.37-.15.38s-.28-.3-.33-.7S242.87,96.17,243,96.16Z"/><path class="cls-6" d="M243.34,97.2a1.64,1.64,0,0,0-.1-.72l.43-.06a2.25,2.25,0,0,1-.18.77Z"/><path class="cls-1" d="M243.21,100.28c.1-.07.38.13.62.45a1.58,1.58,0,0,1,.19.32c.1.2.12.36,0,.41s-.38-.12-.62-.45S243.1,100.36,243.21,100.28Z"/><path class="cls-6" d="M244,101a2.16,2.16,0,0,0-.43-.57l.34-.28a2.33,2.33,0,0,1,.22.77Z"/><path class="cls-1" d="M246.87,103c0-.12.4-.09.77.07l.33.18c.18.12.28.25.24.33s-.39.09-.76-.07S246.82,103.1,246.87,103Z"/><path class="cls-6" d="M247.94,103.21a1.75,1.75,0,0,0-.67-.28c.06-.12.11-.26.17-.4a2.34,2.34,0,0,1,.57.54Z"/><path class="cls-1" d="M252.18,104.8c-.05-.12.22-.34.6-.47a2,2,0,0,1,.36-.1c.22,0,.38,0,.41.06s-.23.34-.61.48S252.22,104.92,252.18,104.8Z"/><path class="cls-6" d="M253.11,104.23a2.55,2.55,0,0,0-.68.26c-.05-.12-.1-.27-.17-.41a2.62,2.62,0,0,1,.81,0Z"/><path class="cls-1" d="M256,102c-.09-.1.07-.4.36-.69l.29-.24c.18-.12.34-.16.4-.1s-.07.4-.36.68S256.13,102.13,256,102Z"/><path class="cls-6" d="M256.65,101.13a1.66,1.66,0,0,0-.51.52c-.09-.1-.2-.2-.31-.31a2.15,2.15,0,0,1,.72-.32Z"/><path class="cls-1" d="M259.35,97.77c-.13,0-.21-.34-.18-.75a2,2,0,0,1,.06-.37c.06-.21.15-.34.23-.34s.22.35.18.75S259.48,97.78,259.35,97.77Z"/><path class="cls-6" d="M259.22,96.68a2.6,2.6,0,0,0-.05.73l-.44,0a2.37,2.37,0,0,1,.34-.73Z"/><path class="cls-6" d="M249.17,98.44c.27.39.28.85,0,1s-.69,0-1-.38-.28-.85,0-1S248.91,98.05,249.17,98.44Z"/><path class="cls-1" d="M248.72,98.16c.27.39.28.85,0,1s-.69,0-.95-.37-.28-.85,0-1S248.45,97.77,248.72,98.16Z"/><path class="cls-7" d="M248.72,98.16c.27.39.28.85,0,1s-.69,0-.95-.37-.28-.85,0-1S248.45,97.77,248.72,98.16Z"/><path class="cls-6" d="M246.19,94.53c.22-.42.63-.64.91-.49s.33.6.11,1-.62.64-.9.49S246,95,246.19,94.53Z"/><path class="cls-1" d="M245.73,94.3c.22-.42.62-.64.91-.49s.33.6.11,1-.62.64-.9.5S245.51,94.72,245.73,94.3Z"/><path class="cls-7" d="M245.73,94.3c.22-.42.62-.64.91-.49s.33.6.11,1-.62.64-.9.5S245.51,94.72,245.73,94.3Z"/><path class="cls-6" d="M252,99.59a.56.56,0,0,1-.15.78.56.56,0,1,1-.64-.92A.57.57,0,0,1,252,99.59Z"/><path class="cls-1" d="M251.85,99.34a.56.56,0,1,1-.78-.14A.56.56,0,0,1,251.85,99.34Z"/><path class="cls-8" d="M251.85,99.34a.56.56,0,1,1-.78-.14A.56.56,0,0,1,251.85,99.34Z"/><path class="cls-6" d="M252.26,93.35a.68.68,0,0,1-.78.59.69.69,0,1,1,.19-1.37A.7.7,0,0,1,252.26,93.35Z"/><path class="cls-1" d="M252.31,93a.69.69,0,0,1-.78.59.71.71,0,0,1-.59-.79.69.69,0,0,1,.78-.59A.71.71,0,0,1,252.31,93Z"/><path class="cls-8" d="M252.31,93a.69.69,0,0,1-.78.59.71.71,0,0,1-.59-.79.69.69,0,0,1,.78-.59A.71.71,0,0,1,252.31,93Z"/><path class="cls-6" d="M254.7,98.42a.41.41,0,1,1-.57-.1A.4.4,0,0,1,254.7,98.42Z"/><path class="cls-1" d="M254.57,98.24a.4.4,0,0,1-.1.57.41.41,0,1,1-.47-.68A.41.41,0,0,1,254.57,98.24Z"/><path class="cls-8" d="M254.57,98.24a.4.4,0,0,1-.1.57.41.41,0,1,1-.47-.68A.41.41,0,0,1,254.57,98.24Z"/><path class="cls-1" d="M258.5,92c-.11.07-.38-.13-.62-.45a2.16,2.16,0,0,1-.19-.31c-.09-.2-.12-.36-.05-.41s.38.12.62.45S258.6,91.93,258.5,92Z"/><path class="cls-6" d="M257.7,91.27a2.31,2.31,0,0,0,.43.58l-.34.27a2.34,2.34,0,0,1-.22-.76Z"/><path class="cls-1" d="M254.77,89.35c-.05.12-.39.09-.75-.07a1.69,1.69,0,0,1-.33-.18c-.18-.12-.28-.24-.24-.32s.38-.09.75.07S254.82,89.23,254.77,89.35Z"/><path class="cls-6" d="M253.72,89.12a1.67,1.67,0,0,0,.66.28c-.06.12-.11.25-.17.39a2.25,2.25,0,0,1-.56-.53Z"/><path class="cls-1" d="M251.15,87.47c0,.13-.3.27-.7.31a1.55,1.55,0,0,1-.37,0c-.21,0-.36-.08-.37-.16s.3-.27.69-.31S251.13,87.34,251.15,87.47Z"/><path class="cls-6" d="M250.12,87.79a2.33,2.33,0,0,0,.71-.08,3.68,3.68,0,0,0,.06.43,2.34,2.34,0,0,1-.77-.19Z"/><path class="cls-1" d="M247,89.26c.08.1-.12.38-.44.62a2.23,2.23,0,0,1-.32.19c-.19.09-.35.12-.4.05s.12-.38.44-.62S246.94,89.16,247,89.26Z"/><path class="cls-6" d="M246.29,90.06a1.65,1.65,0,0,0,.57-.43l.27.34a2.43,2.43,0,0,1-.75.22Z"/><path class="cls-6" d="M255.11,96.37c.06.46-.15.87-.47.91S254,97,254,96.5s.15-.88.47-.92S255.06,95.9,255.11,96.37Z"/><path class="cls-1" d="M255.18,96c.06.46-.15.87-.47.91s-.61-.31-.67-.78.16-.88.47-.92S255.13,95.57,255.18,96Z"/><path class="cls-8" d="M255.18,96c.06.46-.15.87-.47.91s-.61-.31-.67-.78.16-.88.47-.92S255.13,95.57,255.18,96Z"/><path class="cls-6" d="M251.43,95.6a.86.86,0,1,1-1.19-.22A.85.85,0,0,1,251.43,95.6Z"/><path class="cls-1" d="M251.15,95.19a.86.86,0,0,1-.22,1.19.86.86,0,1,1,.22-1.19Z"/><path class="cls-7" d="M251.15,95.19a.86.86,0,0,1-.22,1.19.86.86,0,1,1,.22-1.19Z"/><g class="cls-5"><path d="M255.91,98.19c.06,0,.07.19,0,.44a3.69,3.69,0,0,1-.48,1,4.06,4.06,0,0,1-.47.62,5.48,5.48,0,0,1-.65.61,5.65,5.65,0,0,1-1.82,1,5.51,5.51,0,0,1-2.05.26,4.79,4.79,0,0,1-.88-.12,4.46,4.46,0,0,1-.75-.22,3.47,3.47,0,0,1-1-.54c-.2-.17-.29-.31-.25-.37s.6,0,1.43.16l.67.07a6.51,6.51,0,0,0,.77,0,6.14,6.14,0,0,0,3.25-1c.23-.15.43-.31.62-.46s.35-.3.5-.45C255.44,98.57,255.76,98.12,255.91,98.19Z"/></g><g class="cls-5"><path d="M246.31,99.13a.52.52,0,1,1-.12.75A.53.53,0,0,1,246.31,99.13Z"/></g></g></g></svg>