<svg xmlns="http://www.w3.org/2000/svg" width="38.091" height="38.093" viewBox="0 0 38.091 38.093">
  <g id="blockchain" transform="translate(-0.5 -0.002)">
    <path id="Path_824" data-name="Path 824" d="M193,177.137l-5.1,3.189,5.1,3.189,5.1-3.189Zm0,0" transform="translate(-173.455 -163.956)" fill="#bde9ff"/>
    <path id="Path_825" data-name="Path 825" d="M261.577,225.349l-5.1,3.2V223.18l5.1-3.189Zm0,0" transform="translate(-236.935 -203.623)" fill="#8dd0f0"/>
    <path id="Path_826" data-name="Path 826" d="M187.9,225.349l5.1,3.2V223.18l-5.1-3.189Zm0,0" transform="translate(-173.455 -203.623)" fill="#dbf3ff"/>
    <path id="Path_827" data-name="Path 827" d="M13.1,7.555,8,10.743l5.1,3.189,5.1-3.189Zm0,0" transform="translate(-6.938 -6.991)" fill="#ffedb3"/>
    <path id="Path_828" data-name="Path 828" d="M81.678,55.767l-5.1,3.2V53.6l5.1-3.189Zm0,0" transform="translate(-70.421 -46.658)" fill="#ffc745"/>
    <path id="Path_829" data-name="Path 829" d="M8,55.767l5.1,3.2V53.6L8,50.41Zm0,0" transform="translate(-6.938 -46.658)" fill="#ffdb66"/>
    <path id="Path_830" data-name="Path 830" d="M372.9,7.555l-5.1,3.189,5.1,3.189,5.1-3.189Zm0,0" transform="translate(-339.97 -6.991)" fill="#bde9ff"/>
    <path id="Path_831" data-name="Path 831" d="M441.479,55.767l-5.1,3.2V53.6l5.1-3.189Zm0,0" transform="translate(-403.452 -46.658)" fill="#8dd0f0"/>
    <path id="Path_832" data-name="Path 832" d="M367.8,55.767l5.1,3.2V53.6l-5.1-3.189Zm0,0" transform="translate(-339.969 -46.658)" fill="#dbf3ff"/>
    <path id="Path_833" data-name="Path 833" d="M13.1,346.719,8,349.908l5.1,3.189,5.1-3.189Zm0,0" transform="translate(-6.938 -320.921)" fill="#bde9ff"/>
    <path id="Path_834" data-name="Path 834" d="M81.678,394.93l-5.1,3.2v-5.364l5.1-3.189Zm0,0" transform="translate(-70.421 -360.587)" fill="#8dd0f0"/>
    <path id="Path_835" data-name="Path 835" d="M8,394.93l5.1,3.2v-5.364L8,389.574Zm0,0" transform="translate(-6.938 -360.587)" fill="#dbf3ff"/>
    <path id="Path_836" data-name="Path 836" d="M372.9,346.719l-5.1,3.189,5.1,3.189,5.1-3.189Zm0,0" transform="translate(-339.97 -320.921)" fill="#ffedb3"/>
    <path id="Path_837" data-name="Path 837" d="M441.479,394.93l-5.1,3.2v-5.364l5.1-3.189Zm0,0" transform="translate(-403.452 -360.587)" fill="#ffc745"/>
    <path id="Path_838" data-name="Path 838" d="M367.8,394.93l5.1,3.2v-5.364l-5.1-3.189Zm0,0" transform="translate(-339.969 -360.587)" fill="#ffdb66"/>
    <path id="Path_839" data-name="Path 839" d="M185.776,182.416a.565.565,0,0,0,.58-.007l5.1-3.2a.558.558,0,0,0,.262-.473v-5.274a.552.552,0,0,0,.007-.082.558.558,0,0,0-.262-.473l-5.1-3.189a.558.558,0,0,0-.591,0l-5.1,3.189a.567.567,0,0,0-.262.474v5.355a.558.558,0,0,0,.262.473l5.1,3.2Zm.841-1.488v-4.046l3.98-2.487v4.037Zm-.558-10.074,4.047,2.529-4.047,2.532-4.05-2.53Zm-4.545,3.537,3.987,2.491v4.047l-3.987-2.5Zm0,0" transform="translate(-166.514 -157.015)" fill="#294c5b"/>
    <path id="Path_840" data-name="Path 840" d="M.762,9.582l5.1,3.2a.567.567,0,0,0,.592,0l5.1-3.2a.558.558,0,0,0,.262-.473V3.834a.543.543,0,0,0,.007-.082.558.558,0,0,0-.262-.473L6.457.09a.558.558,0,0,0-.591.946L10.208,3.75,6.161,6.283,2.111,3.752,3.995,2.575A.558.558,0,0,0,3.4,1.628L.762,3.279A.566.566,0,0,0,.5,3.752V9.109a.558.558,0,0,0,.262.473Zm.854-4.823.089.056L5.6,7.25V11.3L1.616,8.8Zm5.1,6.537V7.25L10.7,4.763V8.8Zm0,0" transform="translate(0 0)" fill="#294c5b"/>
    <path id="Path_841" data-name="Path 841" d="M360.558,9.632l5.1,3.2a.567.567,0,0,0,.592,0l5.1-3.2a.558.558,0,0,0,.262-.473V3.885a.552.552,0,0,0-.255-.555l-5.1-3.189a.558.558,0,0,0-.591,0l-5.1,3.189a.566.566,0,0,0-.262.473V9.159a.558.558,0,0,0,.262.473Zm.854-4.823L365.4,7.3v4.047l-3.987-2.5Zm5.1,6.537V7.3l3.98-2.487V8.85Zm-.558-10.074L370,3.8l-4.047,2.532L361.907,3.8Zm0,0" transform="translate(-333.027 -0.05)" fill="#294c5b"/>
    <path id="Path_842" data-name="Path 842" d="M11.56,342.493l-5.1-3.189a.558.558,0,0,0-.591,0l-5.1,3.189a.566.566,0,0,0-.262.473v5.356a.558.558,0,0,0,.262.473l5.1,3.2a.567.567,0,0,0,.593,0l5.1-3.2a.558.558,0,0,0,.262-.473v-5.275a.584.584,0,0,0,.006-.082.558.558,0,0,0-.262-.473Zm-5.4-2.057,4.047,2.529L6.161,345.5l-4.05-2.531Zm-4.545,3.537.089.056,3.9,2.436v4.047l-3.987-2.5Zm5.1,6.537v-4.046l3.98-2.487v4.037Zm0,0" transform="translate(0 -313.98)" fill="#294c5b"/>
    <path id="Path_843" data-name="Path 843" d="M371.356,342.493l-5.1-3.189a.558.558,0,0,0-.591,0l-5.1,3.189a.566.566,0,0,0-.262.473v5.356a.559.559,0,0,0,.262.473l5.1,3.2a.562.562,0,0,0,.854-.473v-5.055l3.98-2.487v4.037l-2.15,1.348a.558.558,0,0,0,.593.945l2.411-1.512a.558.558,0,0,0,.262-.473v-5.274a.552.552,0,0,0-.255-.555Zm-5.4-2.057L370,342.965l-4.047,2.532-4.05-2.531Zm-4.545,3.537,3.987,2.491v4.047l-3.987-2.5Zm0,0" transform="translate(-333.027 -313.98)" fill="#294c5b"/>
    <path id="Path_844" data-name="Path 844" d="M182.52,76.167h9.969a.558.558,0,0,0,0-1.116H182.52A.558.558,0,0,0,182.52,76.167Zm0,0" transform="translate(-167.978 -69.465)" fill="#294c5b"/>
    <path id="Path_845" data-name="Path 845" d="M192.99,422.027h-9.969a.558.558,0,0,0,0,1.116h9.969A.558.558,0,0,0,192.99,422.027Zm0,0" transform="translate(-168.441 -390.626)" fill="#294c5b"/>
    <path id="Path_846" data-name="Path 846" d="M428.473,204.455v6.652a.558.558,0,0,0,1.116,0v-6.652A.558.558,0,0,0,428.473,204.455Zm0,0" transform="translate(-396.131 -188.742)" fill="#294c5b"/>
    <path id="Path_847" data-name="Path 847" d="M69.492,204.787v6.652a.558.558,0,1,0,1.116,0v-6.652A.558.558,0,0,0,69.492,204.787Zm0,0" transform="translate(-63.859 -189.049)" fill="#294c5b"/>
    <path id="Path_848" data-name="Path 848" d="M328.432,154.907l-2.515,1.664a.562.562,0,0,0,.308,1.023.555.555,0,0,0,.307-.093l2.515-1.664A.558.558,0,0,0,328.432,154.907Zm0,0" transform="translate(-300.981 -143.291)" fill="#294c5b"/>
    <path id="Path_849" data-name="Path 849" d="M141.414,157.5a.554.554,0,0,0,.307.093.562.562,0,0,0,.308-1.023l-2.515-1.664a.558.558,0,0,0-.616.931Zm0,0" transform="translate(-127.875 -143.292)" fill="#294c5b"/>
    <path id="Path_850" data-name="Path 850" d="M139.239,327.583a.554.554,0,0,0,.307-.093l2.515-1.663a.558.558,0,0,0-.616-.931l-2.515,1.664A.562.562,0,0,0,139.239,327.583Zm0,0" transform="translate(-127.906 -300.632)" fill="#294c5b"/>
    <path id="Path_851" data-name="Path 851" d="M325.886,325.826l2.515,1.664a.554.554,0,0,0,.307.093.562.562,0,0,0,.308-1.023L326.5,324.9A.558.558,0,0,0,325.886,325.826Zm0,0" transform="translate(-300.949 -300.632)" fill="#294c5b"/>
  </g>
</svg>
